<?xml version="1.0" encoding="UTF-8" standalone="no"?>
<svg
   xmlns:dc="http://purl.org/dc/elements/1.1/"
   xmlns:cc="http://creativecommons.org/ns#"
   xmlns:rdf="http://www.w3.org/1999/02/22-rdf-syntax-ns#"
   xmlns:svg="http://www.w3.org/2000/svg"
   xmlns="http://www.w3.org/2000/svg"
   xmlns:xlink="http://www.w3.org/1999/xlink"
   id="OBJECTS"
   viewBox="0 0 595.28 841.89"
   version="1.1"
   height="478.87865546218484"
   width="338.4"
   class="document-svg-magnetic ready"
   data-fonts="[&quot;Montserrat&quot;]">
  <metadata
     id="metadata869">
    <rdf:RDF>
      <cc:Work
         rdf:about="">
        <dc:format>image/svg+xml</dc:format>
        <dc:type
           rdf:resource="http://purl.org/dc/dcmitype/StillImage" />
        <dc:title></dc:title>
      </cc:Work>
    </rdf:RDF>
  </metadata>
  <g
     transform="translate(-229.43185,61.297501)"
     id="blob-sw"
     style="opacity:0.61"
     data-setup="true"
     data-type="custom"
     stroke-width="12"
     class=""
     data-cx="-89.73617553710938"
     data-cy="803.555908203125"
     vector-effect="non-scaling-stroke"
     stroke="transparent">
    <g
       id="g20">
      <g
         id="g18">
        <g
           id="g16">
          <g
             id="g14">
            <g
               id="g12">
              <g
                 id="g10">
                <g
                   id="g8">
                  <g
                     id="g6">
                    <g
                       id="g4">
                      <path
                         id=""
                         d="m 434.23,728.29 c -26.81,-14.68 -62.55,-3 -88.94,-18.38 -23.48,-13.72 -31.22,-44.41 -29.77,-71.57 1.45,-27.16 9.76,-53.82 9,-81 -0.44,-14.86 -4,-30.31 -13.83,-41.44 -11.92,-13.45 -30.88,-18.22 -48.82,-19.46 -48.16,-3.35 -95.3,13.52 -139.72,32.43 -44.42,18.91 -88.67,40.38 -136.48,47 q -6.66,0.93 -13.45,1.37 c -2.65,-0.09 -49.15,-1.87 -69,-9 -20.4,-7.31 -76.67,0.11 -85.94,45.25 -9.27,45.14 92.72,124.34 84.72,203.51 -8,79.17 -20.21,154 57.91,168.8 78.12,14.8 172.72,-37.1 236.4,-13 63.68,24.1 171.79,-48.3 229,-117.83 v 0 c 14.84,-13.78 27.34,-29.8 33.67,-48.85 9.33,-28.06 1.17,-63.63 -24.75,-77.83 z"
                         style="opacity:1;fill:#01a49b;stroke-width:1px"
                         vector-effect="non-scaling-stroke"
                         data-groupcolor="0" />
                    </g>
                  </g>
                </g>
              </g>
            </g>
          </g>
        </g>
      </g>
    </g>
  </g>
  <g
     data-cy="159.74310302734375"
     data-cx="-107.1775131225586"
     transform="translate(-109.46342,-68.02119)"
     id="blob-nw"
     data-setup="true"
     data-type="custom"
     stroke-width="12"
     class=""
     vector-effect="non-scaling-stroke"
     stroke="transparent">
    <g
       id="g41">
      <g
         id="g39">
        <g
           id="g37">
          <g
             id="g35">
            <g
               id="g33">
              <g
                 id="g31">
                <g
                   id="g29">
                  <g
                     id="g27">
                    <g
                       id="g25">
                      <path
                         id="path23"
                         data-name="CUSTOM"
                         d="m 200,201.55 a 221.17,221.17 0 0 0 -98.51,-121 C 76.84,66.35 48.59,54.17 20.21,43.55 A 248.84,248.84 0 0 0 -10.49,32.66 L -12,32.12 v 0.09 C -48.24,22 -106.49,13.59 -140.73,50.27 c -52.39,56.11 -85.53,217 -43.83,297.72 26.71,51.72 79.26,92.41 140,82.61 23.8,-3.84 43.76,-16.55 64.61,-27.74 C 60.82,381 104.24,364.32 143.63,340 c 25,-15.46 49.42,-35.28 59.36,-63 8.66,-24.14 5.06,-51.1 -2.99,-75.45 z"
                         style="opacity:1;fill:#660266;stroke-width:1px"
                         vector-effect="non-scaling-stroke"
                         data-groupcolor="0" />
                    </g>
                  </g>
                </g>
              </g>
            </g>
          </g>
        </g>
      </g>
    </g>
  </g>
  <g
     data-cy="83.49500274658203"
     data-cx="583.4951782226562"
     transform="translate(109.40905,-22.43358)"
     id="blob-ne"
     data-setup="true"
     data-type="custom"
     stroke-width="12"
     class=""
     vector-effect="non-scaling-stroke"
     stroke="transparent">
    <g
       id="g63">
      <g
         id="g61">
        <g
           id="g59">
          <g
             id="g57">
            <g
               id="g55">
              <g
                 id="g53">
                <g
                   id="g51">
                  <g
                     id="g49">
                    <g
                       id="g47">
                      <path
                         id="path45"
                         data-name="CUSTOM"
                         d="M 668.64,52.65 C 658.64,10.08 636.19,-20.73 607.64,-43 562.17,-78.57 501.24,-92.36 451,-97.48 371.11,-105.63 308.81,-38.12 306.09,-35.13 L 306,-35 c -12.17,12.25 -22.23,26.29 -27.65,42.6 -9.08,27.35 -1.13,62 24.15,75.89 26.14,14.31 61,2.88 86.72,17.92 22.9,13.38 30.44,43.3 29,69.79 -1.44,26.49 -9.51,52.48 -8.73,79 0.42,14.49 3.86,29.56 13.48,40.41 11.63,13.12 30.12,17.77 47.6,19 22.41,1.56 44.87,-1.46 66.58,-7 19.54,-5 40.59,-11.21 56.28,-24.52 22.34,-18.95 36.65,-45.32 49.81,-71 15.24,-29.77 26.54,-62 29.45,-95.47 a 187.17,187.17 0 0 0 -4.05,-58.97 z"
                         style="opacity:1;fill:#660266;stroke-width:1px"
                         vector-effect="non-scaling-stroke"
                         data-groupcolor="0" />
                    </g>
                  </g>
                </g>
              </g>
            </g>
          </g>
        </g>
      </g>
    </g>
  </g>
  <g
     id="CUSTOM-GROUP-1614337517262"
     data-setup="true"
     data-type="custom"
     stroke="transparent"
     stroke-width="12"
     class=""
     vector-effect="non-scaling-stroke"
     transform="translate(41.789075,-29.165356)">
    <g
       id="g84">
      <g
         id="g82">
        <g
           id="g80">
          <g
             id="g78">
            <g
               id="g76">
              <g
                 id="g74">
                <g
                   id="g72">
                  <g
                     id="g70">
                    <g
                       id="g68">
                      <path
                         id="path66"
                         data-name="CUSTOM"
                         d="m 568.16,140.51 c -2.86,-8.68 -4.46,-17.84 -6,-26.69 -1.8,-10.38 -3.67,-21.12 -7.6,-31.34 -6.85,-17.85 -18.38,-34 -34.28,-48.09 -26,-23 -60.21,-40.37 -107.81,-54.77 l -0.47,-0.15 -0.44,1.45 0.48,0.14 C 459.42,-4.6 493.5,12.7 519.29,35.51 535,49.41 546.4,65.4 553.16,83 c 3.87,10.08 5.72,20.74 7.52,31.06 1.55,8.9 3.15,18.11 6.05,26.9 6.21,18.85 17.22,33.7 33.67,45.39 16,11.4 35.42,18.51 52.25,24 l 0.48,0.16 0.46,-1.43 -0.47,-0.16 C 619.3,198 582.06,182.73 568.16,140.51 Z"
                         style="opacity:1;fill:#6e7ded;stroke-width:1px"
                         vector-effect="non-scaling-stroke"
                         data-groupcolor="0" />
                    </g>
                  </g>
                </g>
              </g>
            </g>
          </g>
        </g>
      </g>
    </g>
  </g>
  <g
     id="g107"
     data-setup="true"
     data-type="custom"
     stroke="transparent"
     stroke-width="12"
     class=""
     vector-effect="non-scaling-stroke"
     transform="translate(53.433864,-37.37934)">
    <g
       id="g105">
      <g
         id="g103">
        <g
           id="g101">
          <g
             id="g99">
            <g
               id="g97">
              <g
                 id="g95">
                <g
                   id="g93">
                  <g
                     id="g91">
                    <g
                       id="g89">
                      <path
                         id="path87"
                         data-name="CUSTOM"
                         d="m 576,129 c -2.85,-8.67 -4.45,-17.82 -6,-26.69 C 568.2,92 566.33,81.22 562.4,71 555.55,53.14 544,37 528.12,22.9 c -26,-23 -60.21,-40.36 -107.81,-54.77 l -0.47,-0.14 -0.44,1.44 0.48,0.14 c 47.38,14.34 81.45,31.65 107.25,54.43 15.71,13.89 27.1,29.88 33.87,47.5 3.87,10.08 5.72,20.74 7.52,31.06 1.55,8.91 3.15,18.12 6.05,26.9 6.2,18.85 17.22,33.7 33.67,45.39 16,11.4 35.42,18.51 52.25,24 l 0.48,0.15 0.46,-1.43 -0.47,-0.15 C 627.14,186.46 589.9,171.24 576,129 Z"
                         style="opacity:1;fill:#6e7ded;stroke-width:1px"
                         vector-effect="non-scaling-stroke"
                         data-groupcolor="0" />
                    </g>
                  </g>
                </g>
              </g>
            </g>
          </g>
        </g>
      </g>
    </g>
  </g>
  <g
     id="g129"
     data-setup="true"
     data-type="custom"
     stroke="transparent"
     stroke-width="12"
     class=""
     vector-effect="non-scaling-stroke"
     transform="translate(65.477501,-37.953838)">
    <g
       id="g127">
      <g
         id="g125">
        <g
           id="g123">
          <g
             id="g121">
            <g
               id="g119">
              <g
                 id="g117">
                <g
                   id="g115">
                  <g
                     id="g113">
                    <g
                       id="g111">
                      <path
                         id="path109"
                         data-name="CUSTOM"
                         d="m 668.79,185.93 c -33.81,-11 -71,-26.17 -85,-68.4 -2.86,-8.68 -4.45,-17.83 -6,-26.69 -1.81,-10.38 -3.68,-21.11 -7.6,-31.33 -6.85,-17.85 -18.38,-34 -34.28,-48.1 -26,-23 -60.21,-40.36 -107.81,-54.76 l -0.48,-0.15 -0.43,1.44 0.48,0.15 c 47.42,14.34 81.5,31.64 107.33,54.45 15.72,13.9 27.11,29.88 33.88,47.51 3.87,10.09 5.72,20.75 7.52,31.06 1.55,8.9 3.15,18.1 6,26.89 6.21,18.86 17.23,33.7 33.68,45.4 16,11.4 35.41,18.51 52.25,24 l 0.48,0.16 0.46,-1.44 z"
                         style="opacity:0.5;fill:#6e7ded;stroke-width:1px"
                         vector-effect="non-scaling-stroke"
                         data-groupcolor="0" />
                    </g>
                  </g>
                </g>
              </g>
            </g>
          </g>
        </g>
      </g>
    </g>
  </g>
  <g
     id="bang"
     data-setup="true"
     data-type="custom"
     stroke="transparent"
     stroke-width="12"
     class=""
     vector-effect="non-scaling-stroke"
     transform="translate(135.42729,125.02584)">
    <g
       id="g151">
      <g
         id="g149">
        <g
           id="g147">
          <g
             id="g145">
            <g
               id="g143">
              <g
                 id="g141">
                <g
                   id="g139">
                  <g
                     id="g137">
                    <g
                       id="g135">
                      <path
                         d="m 610.78,533.62 a 1.2,1.2 0 0 0 -1.47,-1.49 c -6.62,-1.21 -13.15,-2.72 -19.68,-4.34 a 0.94,0.94 0 0 0 -0.53,0 1,1 0 0 0 -1.56,0.66 c -2.42,10.75 -4.85,21.49 -7.41,32.2 -2.31,9.68 -6.19,19.88 -6.86,29.81 a 0.46,0.46 0 0 0 0.42,0.54 1,1 0 0 0 0.38,1.39 140.22,140.22 0 0 0 15.44,4.7 1.19,1.19 0 0 0 1.47,-0.82 0.67,0.67 0 0 0 1.29,0.1 c 7.33,-20.37 12.19,-41.96 18.51,-62.75 z m -20.54,61.23 a 141.55,141.55 0 0 0 -15.87,-4.08 h -0.09 a 0.7,0.7 0 0 0 0.06,-0.09 c 4.4,-9.26 5.95,-20.62 8.37,-30.56 q 3.69,-15.18 7,-30.48 a 126.44,126.44 0 0 0 18.42,4.46 C 602,554.34 594.9,574.92 591,595.72 a 1,1 0 0 0 -0.76,-0.87 z"
                         style="opacity:1;fill:#6e7ded;stroke-width:1px"
                         vector-effect="non-scaling-stroke"
                         data-groupcolor="0"
                         id="path131" />
                      <path
                         d="m 586.77,614.21 a 102,102 0 0 0 2.37,-10.06 1.42,1.42 0 0 0 -0.89,-1.74 c -4.62,-1.19 -9.27,-2.44 -14,-3.28 a 0.75,0.75 0 0 0 -0.82,0.36 1.4,1.4 0 0 0 -1.8,0.44 c -2.45,3.73 -3.76,8.3 -4.66,12.63 a 1.55,1.55 0 0 0 1,1.91 l 9.46,3 c 1.81,0.59 4.9,2.36 6.85,1.54 1.72,-0.67 2.04,-3.27 2.49,-4.8 z m -3.7,2 c -0.5,0.24 -3.06,-1 -3.54,-1.18 L 576,613.9 570.28,612 a 96.39,96.39 0 0 1 3.87,-10.87 c 4,1.39 8,2.47 12.06,3.56 -0.4,1.91 -0.83,3.81 -1.33,5.7 -0.3,1.14 -0.88,5.41 -1.81,5.85 z"
                         style="opacity:1;fill:#6e7ded;stroke-width:1px"
                         vector-effect="non-scaling-stroke"
                         data-groupcolor="0"
                         id="path133" />
                    </g>
                  </g>
                </g>
              </g>
            </g>
          </g>
        </g>
      </g>
    </g>
  </g>
  <g
     id="dashes"
     data-name="CUSTOM-group"
     data-setup="true"
     data-type="custom"
     stroke="transparent"
     stroke-width="12"
     class=""
     vector-effect="non-scaling-stroke">
    <g
       id="g172">
      <g
         id="g170">
        <g
           id="g168">
          <g
             id="g166">
            <g
               id="g164">
              <g
                 id="g162">
                <g
                   id="g160">
                  <g
                     id="g158">
                    <g
                       id="g156">
                      <path
                         d="m -22,212.79 a 0.49,0.49 0 0 1 -0.46,-0.3 0.5,0.5 0 0 1 0.26,-0.66 c 1.5,-0.64 3,-1.33 4.52,-2.05 a 0.5,0.5 0 0 1 0.68,0.22 0.49,0.49 0 0 1 -0.24,0.66 c -1.51,0.72 -3,1.42 -4.56,2.07 a 0.43,0.43 0 0 1 -0.2,0.06 z m 9,-4.29 a 0.5,0.5 0 0 1 -0.44,-0.27 0.5,0.5 0 0 1 0.21,-0.67 c 1.47,-0.77 2.93,-1.57 4.35,-2.39 a 0.51,0.51 0 0 1 0.69,0.19 0.51,0.51 0 0 1 -0.19,0.68 c -1.43,0.82 -2.91,1.63 -4.38,2.4 A 0.53,0.53 0 0 1 -13,208.5 Z m 8.65,-5 a 0.51,0.51 0 0 1 -0.43,-0.23 0.51,0.51 0 0 1 0.16,-0.69 c 1.41,-0.88 2.81,-1.8 4.15,-2.72 a 0.52,0.52 0 0 1 0.7,0.13 0.52,0.52 0 0 1 -0.13,0.7 c -1.36,0.93 -2.77,1.85 -4.19,2.74 a 0.48,0.48 0 0 1 -0.26,0.11 z m 8.22,-5.62 a 0.48,0.48 0 0 1 -0.4,-0.2 0.5,0.5 0 0 1 0.1,-0.7 c 1.32,-1 2.64,-2 3.9,-3.06 a 0.5,0.5 0 0 1 0.7,0.07 0.5,0.5 0 0 1 -0.07,0.71 c -1.27,1 -2.6,2.08 -3.93,3.08 a 0.49,0.49 0 0 1 -0.3,0.14 z m 7.69,-6.32 a 0.5,0.5 0 0 1 -0.33,-0.87 c 1.23,-1.11 2.44,-2.26 3.59,-3.41 a 0.50204581,0.50204581 0 0 1 0.71,0.71 c -1.16,1.16 -2.38,2.32 -3.63,3.44 a 0.5,0.5 0 0 1 -0.34,0.17 z m 7,-7 a 0.5,0.5 0 0 1 -0.33,-0.13 0.5,0.5 0 0 1 0,-0.71 c 1.11,-1.23 2.19,-2.5 3.21,-3.76 a 0.5,0.5 0 0 1 0.78,0.62 c -1,1.28 -2.12,2.57 -3.24,3.81 a 0.52,0.52 0 0 1 -0.38,0.18 z m 6.23,-7.76 a 0.52,0.52 0 0 1 -0.29,-0.09 0.5,0.5 0 0 1 -0.12,-0.7 c 1,-1.35 1.87,-2.74 2.73,-4.12 a 0.49,0.49 0 0 1 0.69,-0.16 0.49,0.49 0 0 1 0.16,0.68 c -0.87,1.41 -1.8,2.81 -2.76,4.18 a 0.54,0.54 0 0 1 -0.37,0.22 z m 5.22,-8.46 a 0.46,0.46 0 0 1 -0.23,-0.06 0.5,0.5 0 0 1 -0.21,-0.68 c 0.77,-1.45 1.5,-2.94 2.17,-4.43 a 0.5,0.5 0 1 1 0.91,0.4 c -0.67,1.52 -1.41,3 -2.2,4.5 a 0.5,0.5 0 0 1 -0.4,0.28 z m 4.06,-9.08 h -0.18 a 0.49,0.49 0 0 1 -0.29,-0.64 c 0.56,-1.54 1.08,-3.12 1.53,-4.69 a 0.51,0.51 0 0 1 0.62,-0.34 0.49,0.49 0 0 1 0.34,0.62 c -0.46,1.59 -1,3.2 -1.55,4.76 a 0.51,0.51 0 0 1 -0.43,0.3 z m 2.75,-9.54 h -0.1 a 0.51,0.51 0 0 1 -0.39,-0.59 c 0.35,-1.6 0.64,-3.23 0.87,-4.86 a 0.50487622,0.50487622 0 1 1 1,0.14 c -0.24,1.65 -0.53,3.31 -0.88,4.92 a 0.5,0.5 0 0 1 -0.46,0.4 z m 1.42,-9.83 v 0 a 0.5,0.5 0 0 1 -0.46,-0.54 c 0.12,-1.62 0.2,-3.28 0.21,-4.93 a 0.51,0.51 0 0 1 0.5,-0.5 v 0 a 0.5,0.5 0 0 1 0.49,0.51 c 0,1.67 -0.09,3.35 -0.21,5 a 0.5,0.5 0 0 1 -0.49,0.47 z m 0,-9.94 a 0.49,0.49 0 0 1 -0.5,-0.45 42.11,42.11 0 0 0 -0.7,-4.86 0.51,0.51 0 0 1 0.39,-0.59 0.5,0.5 0 0 1 0.59,0.39 44.37,44.37 0 0 1 0.72,5 0.5,0.5 0 0 1 -0.46,0.54 z m -2,-9.7 a 0.5,0.5 0 0 1 -0.47,-0.33 37.45,37.45 0 0 0 -1.77,-4.51 0.49,0.49 0 0 1 0.22,-0.67 0.5,0.5 0 0 1 0.67,0.22 36.33,36.33 0 0 1 1.94,4.64 0.51,0.51 0 0 1 -0.31,0.64 0.44,0.44 0 0 1 -0.2,0.02 z M 31.9,111.4 a 0.52,0.52 0 0 1 -0.42,-0.22 39.08,39.08 0 0 0 -3,-3.88 0.48,0.48 0 0 1 0,-0.7 0.51,0.51 0 0 1 0.71,0 41.51,41.51 0 0 1 3.08,4 0.51,0.51 0 0 1 -0.13,0.69 0.51,0.51 0 0 1 -0.24,0.11 z m -6.55,-7.46 a 0.5,0.5 0 0 1 -0.33,-0.13 c -1.19,-1.07 -2.47,-2.11 -3.82,-3.1 a 0.5010489,0.5010489 0 0 1 0.59,-0.81 c 1.37,1 2.69,2.08 3.9,3.17 a 0.5,0.5 0 0 1 -0.34,0.87 z m -8,-5.88 a 0.48,0.48 0 0 1 -0.26,-0.07 c -1.38,-0.83 -2.83,-1.63 -4.33,-2.38 a 0.5,0.5 0 1 1 0.45,-0.89 c 1.52,0.76 3,1.57 4.39,2.41 a 0.5,0.5 0 0 1 -0.25,0.93 z M 8.45,93.6 a 0.65,0.65 0 0 1 -0.19,0 c -1.49,-0.62 -3,-1.21 -4.63,-1.76 a 0.5265216,0.5265216 0 0 1 0.33,-1 c 1.6,0.56 3.18,1.16 4.68,1.79 a 0.49,0.49 0 0 1 0.27,0.65 0.5,0.5 0 0 1 -0.46,0.32 z m -9.4,-3.28 a 0.34,0.34 0 0 1 -0.14,0 c -1.56,-0.44 -3.17,-0.86 -4.8,-1.25 a 0.5,0.5 0 0 1 -0.37,-0.6 0.5,0.5 0 0 1 0.6,-0.37 c 1.64,0.39 3.27,0.81 4.85,1.26 A 0.51,0.51 0 0 1 -0.47,90 0.49,0.49 0 0 1 -0.95,90.32 Z M -10.65,88 h -0.09 c -1.62,-0.31 -3.27,-0.58 -4.9,-0.8 a 0.5,0.5 0 0 1 -0.42,-0.57 0.48,0.48 0 0 1 0.56,-0.42 c 1.64,0.23 3.31,0.5 4.94,0.8 a 0.5,0.5 0 0 1 0.4,0.58 0.49,0.49 0 0 1 -0.49,0.41 z"
                         style="opacity:0.9;fill:#ffffff;stroke-width:1px"
                         vector-effect="non-scaling-stroke"
                         data-groupcolor="0"
                         id="path154" />
                    </g>
                  </g>
                </g>
              </g>
            </g>
          </g>
        </g>
      </g>
    </g>
  </g>
  <g
     id="CUSTOM-GROUP-1614337517263"
     data-setup="true"
     data-type="custom"
     stroke="transparent"
     stroke-width="12"
     class=""
     vector-effect="non-scaling-stroke"
     transform="translate(132.30936,9.2283962)">
    <g
       id="g193">
      <g
         id="g191">
        <g
           id="g189">
          <g
             id="g187">
            <g
               id="g185">
              <g
                 id="g183">
                <g
                   id="g181">
                  <g
                     id="g179">
                    <g
                       id="g177">
                      <path
                         id="path175"
                         data-name="CUSTOM"
                         d="m 489.5,451 v 0 a 0.5,0.5 0 0 1 -0.49,-0.51 v -1 a 0.52,0.52 0 0 1 0.52,-0.48 0.5,0.5 0 0 1 0.48,0.52 v 1 A 0.5,0.5 0 0 1 489.5,451 Z m 0.36,-6 h -0.05 a 0.49,0.49 0 0 1 -0.45,-0.54 c 0.15,-1.67 0.35,-3.35 0.6,-5 a 0.5,0.5 0 0 1 0.57,-0.42 0.51,0.51 0 0 1 0.42,0.57 c -0.24,1.62 -0.44,3.28 -0.6,4.93 a 0.49,0.49 0 0 1 -0.49,0.46 z m 1.48,-9.87 h -0.11 a 0.49,0.49 0 0 1 -0.38,-0.59 c 0.35,-1.65 0.74,-3.29 1.18,-4.88 a 0.51,0.51 0 0 1 0.62,-0.35 0.5,0.5 0 0 1 0.35,0.61 c -0.44,1.58 -0.83,3.2 -1.17,4.83 a 0.5,0.5 0 0 1 -0.49,0.36 z m 2.66,-9.62 a 0.51,0.51 0 0 1 -0.17,0 0.5,0.5 0 0 1 -0.31,-0.63 c 0.55,-1.59 1.15,-3.17 1.79,-4.7 a 0.50423209,0.50423209 0 0 1 0.93,0.39 c -0.64,1.51 -1.23,3.07 -1.77,4.63 a 0.5,0.5 0 0 1 -0.47,0.29 z m 3.85,-9.21 a 0.44,0.44 0 0 1 -0.22,0 0.5,0.5 0 0 1 -0.23,-0.67 c 0.74,-1.49 1.55,-3 2.38,-4.43 a 0.50423209,0.50423209 0 1 1 0.87,0.51 c -0.83,1.42 -1.62,2.89 -2.35,4.37 a 0.51,0.51 0 0 1 -0.45,0.2 z m 5,-8.63 a 0.51,0.51 0 0 1 -0.28,-0.09 0.5,0.5 0 0 1 -0.13,-0.69 c 0.92,-1.38 1.91,-2.75 2.93,-4.09 a 0.5,0.5 0 1 1 0.79,0.61 c -1,1.32 -2,2.67 -2.89,4 a 0.51,0.51 0 0 1 -0.41,0.24 z m 6.07,-7.94 a 0.54,0.54 0 0 1 -0.33,-0.12 0.51,0.51 0 0 1 -0.05,-0.71 c 1.09,-1.25 2.24,-2.5 3.41,-3.69 a 0.50209561,0.50209561 0 0 1 0.72,0.7 c -1.16,1.18 -2.29,2.41 -3.37,3.65 a 0.52,0.52 0 0 1 -0.37,0.15 z m 7,-7.14 a 0.52,0.52 0 0 1 -0.37,-0.16 0.5,0.5 0 0 1 0,-0.71 c 1.24,-1.12 2.52,-2.22 3.82,-3.28 a 0.50132325,0.50132325 0 0 1 0.63,0.78 c -1.28,1 -2.55,2.13 -3.77,3.24 a 0.5,0.5 0 0 1 -0.31,0.11 z m 7.76,-6.3 a 0.5,0.5 0 0 1 -0.4,-0.21 0.49,0.49 0 0 1 0.11,-0.7 c 1.35,-1 2.74,-1.93 4.15,-2.84 a 0.49,0.49 0 0 1 0.69,0.15 0.5,0.5 0 0 1 -0.15,0.69 c -1.39,0.89 -2.77,1.84 -4.11,2.81 a 0.45,0.45 0 0 1 -0.29,0.08 z m 8.4,-5.44 a 0.5,0.5 0 0 1 -0.44,-0.25 0.49,0.49 0 0 1 0.19,-0.68 c 1.44,-0.84 2.93,-1.64 4.42,-2.4 a 0.49,0.49 0 0 1 0.67,0.22 0.5,0.5 0 0 1 -0.22,0.67 c -1.47,0.75 -2.94,1.55 -4.38,2.37 a 0.42,0.42 0 0 1 -0.24,0.05 z m 33,-3.24 H 565 a 28.07,28.07 0 0 1 -5,-1.12 0.5,0.5 0 0 1 -0.32,-0.63 0.49,0.49 0 0 1 0.63,-0.32 26.54,26.54 0 0 0 4.78,1.08 0.49,0.49 0 0 1 0.43,0.56 0.5,0.5 0 0 1 -0.47,0.41 z m 5,0 a 0.50159745,0.50159745 0 0 1 -0.08,-1 6.73,6.73 0 0 0 4.08,-2 0.51,0.51 0 0 1 0.71,-0.05 0.49,0.49 0 0 1 0,0.7 7.75,7.75 0 0 1 -4.67,2.36 z m -29,-1.27 a 0.5,0.5 0 0 1 -0.21,-0.95 c 1.54,-0.69 3.1,-1.34 4.65,-1.93 a 0.48,0.48 0 0 1 0.64,0.28 0.51,0.51 0 0 1 -0.28,0.65 c -1.54,0.59 -3.08,1.23 -4.6,1.91 A 0.45,0.45 0 0 1 541,376.28 Z m 14.55,-1.68 a 0.59,0.59 0 0 1 -0.22,-0.05 38.39,38.39 0 0 1 -3.83,-2.21 l -1,0.32 a 0.49,0.49 0 0 1 -0.63,-0.32 0.5,0.5 0 0 1 0.32,-0.63 l 0.56,-0.18 a 0.54,0.54 0 0 1 0.09,-0.24 0.5,0.5 0 0 1 0.7,-0.13 l 0.13,0.09 c 1.13,-0.34 2.25,-0.66 3.36,-0.95 a 0.5153882,0.5153882 0 1 1 0.25,1 l -2.51,0.69 a 33.18,33.18 0 0 0 3,1.69 0.5,0.5 0 0 1 0.22,0.67 0.48,0.48 0 0 1 -0.53,0.19 z m 19.15,-3.69 a 0.49,0.49 0 0 1 -0.32,-0.12 8.23,8.23 0 0 0 -4.43,-1.32 0.5,0.5 0 0 1 -0.46,-0.54 0.51,0.51 0 0 1 0.54,-0.45 9,9 0 0 1 5,1.55 0.5,0.5 0 0 1 0.06,0.7 0.51,0.51 0 0 1 -0.48,0.12 z m -14.67,-0.7 a 0.50202092,0.50202092 0 0 1 -0.09,-1 c 1.75,-0.32 3.44,-0.55 5,-0.69 a 0.50159745,0.50159745 0 1 1 0.08,1 c -1.54,0.13 -3.19,0.35 -4.91,0.67 z M 547.32,369 a 0.55,0.55 0 0 1 -0.34,-0.13 35.53,35.53 0 0 1 -3.46,-3.71 0.51,0.51 0 0 1 0.79,-0.63 31.54,31.54 0 0 0 3.35,3.6 0.5,0.5 0 0 1 0,0.71 0.52,0.52 0 0 1 -0.34,0.16 z m -6.19,-7.8 a 0.5,0.5 0 0 1 -0.44,-0.25 30.92,30.92 0 0 1 -2.1,-4.62 0.51,0.51 0 0 1 0.31,-0.64 0.5,0.5 0 0 1 0.64,0.3 28.47,28.47 0 0 0 2,4.47 0.5,0.5 0 0 1 -0.19,0.68 0.53,0.53 0 0 1 -0.22,0.02 z m -3.33,-9.37 a 0.51,0.51 0 0 1 -0.5,-0.41 32.36,32.36 0 0 1 -0.46,-5.05 0.5,0.5 0 0 1 0.49,-0.51 v 0 a 0.51,0.51 0 0 1 0.5,0.5 30.45,30.45 0 0 0 0.45,4.89 0.51,0.51 0 0 1 -0.41,0.58 z m -0.15,-10 h -0.08 a 0.5,0.5 0 0 1 -0.42,-0.57 23.22,23.22 0 0 1 1.31,-4.9 0.49,0.49 0 0 1 0.64,-0.28 0.5,0.5 0 0 1 0.29,0.64 22.43,22.43 0 0 0 -1.25,4.69 0.5,0.5 0 0 1 -0.49,0.43 z m 3.52,-9.23 a 0.56,0.56 0 0 1 -0.27,-0.08 0.5,0.5 0 0 1 -0.15,-0.69 31.7,31.7 0 0 1 3,-4 0.49,0.49 0 0 1 0.7,-0.05 0.51,0.51 0 0 1 0,0.71 32.41,32.41 0 0 0 -2.95,3.92 0.5,0.5 0 0 1 -0.33,0.2 z m 6.51,-7.54 a 0.5,0.5 0 0 1 -0.33,-0.87 c 1.2,-1.08 2.52,-2.15 3.92,-3.18 a 0.50400893,0.50400893 0 0 1 0.6,0.81 c -1.38,1 -2.67,2.06 -3.85,3.11 a 0.5,0.5 0 0 1 -0.34,0.14 z m 8,-6 a 0.48,0.48 0 0 1 -0.42,-0.23 0.5,0.5 0 0 1 0.15,-0.69 c 1.37,-0.86 2.83,-1.71 4.35,-2.54 a 0.50119856,0.50119856 0 0 1 0.48,0.88 c -1.5,0.82 -2.94,1.66 -4.3,2.51 a 0.48,0.48 0 0 1 -0.23,0.12 z m 8.78,-4.8 A 0.52,0.52 0 0 1 564,314 a 0.5,0.5 0 0 1 0.24,-0.67 c 1.47,-0.71 3,-1.41 4.58,-2.08 a 0.49,0.49 0 0 1 0.65,0.26 0.5,0.5 0 0 1 -0.26,0.66 c -1.55,0.66 -3.08,1.36 -4.54,2.06 a 0.54,0.54 0 0 1 -0.18,0.08 z m 9.2,-4 a 0.48,0.48 0 0 1 -0.46,-0.32 0.51,0.51 0 0 1 0.28,-0.65 c 1.53,-0.59 3.12,-1.17 4.72,-1.73 a 0.5,0.5 0 1 1 0.33,0.94 c -1.59,0.56 -3.17,1.14 -4.69,1.72 a 0.37,0.37 0 0 1 -0.15,0.13 z m 9.46,-3.31 a 0.5,0.5 0 0 1 -0.47,-0.35 0.49,0.49 0 0 1 0.32,-0.63 q 2.47,-0.78 4.81,-1.46 a 0.51,0.51 0 0 1 0.62,0.35 0.48,0.48 0 0 1 -0.34,0.61 c -1.55,0.45 -3.15,0.93 -4.78,1.45 z m 9.64,-2.79 a 0.5042073,0.5042073 0 0 1 -0.13,-1 c 1.74,-0.45 3.37,-0.86 4.88,-1.21 a 0.51305458,0.51305458 0 1 1 0.23,1 c -1.5,0.35 -3.13,0.76 -4.86,1.21 z m 9.76,-2.3 a 0.5,0.5 0 0 1 -0.49,-0.39 0.51,0.51 0 0 1 0.39,-0.6 c 3.07,-0.64 4.95,-0.95 5,-0.95 a 0.5,0.5 0 0 1 0.57,0.41 0.49,0.49 0 0 1 -0.41,0.57 c 0,0 -1.88,0.31 -4.93,0.95 z"
                         style="opacity:1;fill:#8996f7;stroke-width:1px"
                         vector-effect="non-scaling-stroke"
                         data-groupcolor="0" />
                    </g>
                  </g>
                </g>
              </g>
            </g>
          </g>
        </g>
      </g>
    </g>
  </g>
  <g
     id="CUSTOM-group-3"
     data-name="CUSTOM-group"
     data-setup="true"
     data-type="custom"
     stroke-width="12"
     class=""
     vector-effect="non-scaling-stroke"
     data-cx="311.90350341796875"
     data-cy="426.3458251953125"
     transform="translate(-426.61042,248.69588)"
     stroke="transparent">
    <g
       id="g226">
      <g
         id="g224">
        <g
           id="g222">
          <g
             id="g220">
            <g
               id="g218">
              <g
                 id="g216">
                <g
                   id="g214">
                  <g
                     id="g212">
                    <g
                       id="g210">
                      <path
                         d="m 338.7,398.11 c -4.42,-5.29 -11.44,-8 -17.94,-9.65 -14.06,-3.58 -30.41,-2.17 -41.8,7.55 -9.78,8.35 -15.19,23 -10.35,35.37 2.6,6.62 7.78,11.66 12.78,16.51 a 95.2,95.2 0 0 1 7.5,7.8 36.63,36.63 0 0 1 5.49,9.9 0.54,0.54 0 0 0 0.1,0.16 1.67,1.67 0 0 0 0.64,1.94 15.59,15.59 0 0 0 0.67,10.63 c -0.5,0.06 -0.78,0.88 -0.23,1.11 l 0.93,0.37 a 16.31,16.31 0 0 0 6.42,6.67 c 7.73,4.26 21.6,2.49 25.47,-6.42 2.5,-5.76 -0.28,-12.07 -2.82,-17.29 a 1.38,1.38 0 0 0 -1.14,-0.68 c -0.73,-3.72 -1.22,-7.32 -0.25,-11.08 1.09,-4.19 3.58,-7.47 6.38,-10.68 2.53,-2.89 5.16,-5.75 6.93,-9.2 a 48,48 0 0 0 3.7,-11.09 c 1.73,-7.52 2.82,-15.54 -2.48,-21.92 z M 325,480.77 c -3,4.14 -9.1,5.56 -13.94,5.55 a 14.88,14.88 0 0 1 -12,-5.6 38.89,38.89 0 0 0 12.52,1.74 41.75,41.75 0 0 0 8.11,-1 40.55,40.55 0 0 0 4,-1.14 c 0.64,-0.22 1.33,-0.43 2,-0.71 a 9.71,9.71 0 0 1 -0.69,1.16 z m 1.26,-8.92 a 12.75,12.75 0 0 1 0.3,5.16 13.14,13.14 0 0 0 -3.66,1.22 c -1.16,0.42 -2.33,0.79 -3.52,1.1 a 38.75,38.75 0 0 1 -7.8,1.22 41.81,41.81 0 0 1 -13.75,-1.68 16.1,16.1 0 0 1 -1.91,-5.61 36.05,36.05 0 0 0 18.08,4.29 c 4.49,-0.1 10,-1.5 12.29,-5.7 z m -2.59,-6.69 a 45.18,45.18 0 0 1 1.85,4.28 1.29,1.29 0 0 0 -1.21,0.58 9.64,9.64 0 0 1 -4.91,4.12 19.76,19.76 0 0 1 -6.78,1.11 44.09,44.09 0 0 1 -16.7,-3.53 0.39,0.39 0 0 0 -0.15,0 A 17.69,17.69 0 0 1 296,468 c 4.54,1.15 9.73,1 14.33,0.52 a 53,53 0 0 0 13.37,-3.36 z M 307.08,441 a 198.72,198.72 0 0 0 5.92,24 q -1.49,0.23 -3,0.36 a 50.7,50.7 0 0 1 -7,0.15 h -0.66 a 135.72,135.72 0 0 0 -3.34,-35.13 19.52,19.52 0 0 0 6.37,-1.06 c 0.29,3.93 1.02,7.85 1.71,11.68 z m 30.44,-20.27 c -1.15,4.31 -2.64,8.51 -5.4,12.07 -2.53,3.27 -5.69,6 -8.21,9.24 -4.49,5.83 -6.56,14.44 -3.51,21.37 a 49.31,49.31 0 0 1 -4.93,1.23 196.24,196.24 0 0 1 -7,-31.3 c -0.23,-1.66 -0.43,-3.36 -0.56,-5.06 a 19.14,19.14 0 0 0 8.14,-7.06 c 1.91,-3.19 3.21,-9.18 -1,-11.29 -5,-2.53 -8.29,4.13 -9.16,7.94 a 35.13,35.13 0 0 0 -0.73,9.32 18.26,18.26 0 0 1 -6.72,1.07 q -0.64,-2.72 -1.36,-5.4 c -0.86,-3.16 -2.72,-11.06 -7.72,-9.12 -4.81,1.87 -3,9 -0.64,12 a 12.4,12.4 0 0 0 8.46,4.56 v 0 c 2.64,11.58 3.74,23.29 4.37,35.12 -1.91,-0.18 -3.79,-0.48 -5.7,-0.64 h -0.13 c -0.48,-5.2 -3.87,-9.8 -7.19,-13.65 -3.93,-4.54 -8.57,-8.43 -12.3,-13.16 a 25.73,25.73 0 0 1 -5.89,-17.25 31.1,31.1 0 0 1 6.89,-17.9 c 9.09,-11.3 24.74,-14.32 38.45,-11.91 6.58,1.15 13.92,3.24 18.94,7.89 6.38,5.9 4.91,14.34 2.9,21.89 z m -29,-3 c 0.5,-2 1.43,-4.89 3.62,-5.7 2.83,-1.05 3.6,2.32 3.31,4.38 -0.59,4.18 -3.72,7.57 -7.67,9.65 a 30.65,30.65 0 0 1 0.77,-8.39 z M 296.65,428 a 11.59,11.59 0 0 1 -3.66,-1.2 9.38,9.38 0 0 1 -4.32,-5 c -0.81,-2.25 0,-9.3 3.77,-5.78 1.68,1.58 2.18,4.18 2.78,6.3 0.52,1.95 0.97,3.84 1.43,5.68 z"
                         style="opacity:1;fill:#01a49b;stroke-width:1px"
                         vector-effect="non-scaling-stroke"
                         data-groupcolor="0"
                         id="path196" />
                      <path
                         d="m 266.37,440.77 a 3.17,3.17 0 0 0 -2.47,-0.19 l -1.11,0.27 a 4.8,4.8 0 0 0 -1,0.38 l -0.2,0.09 -1,0.38 -0.57,0.17 -0.33,0.14 -0.22,0.09 c -0.37,0.14 -0.75,0.26 -1.12,0.39 a 2.59,2.59 0 0 0 -1.11,0.7 v 0 l -0.55,0.19 a 5.42,5.42 0 0 0 -1.31,0.55 1.29,1.29 0 0 0 0,2.21 3.41,3.41 0 0 0 1.39,0.46 l 0.93,0.11 a 5.31,5.31 0 0 0 3.32,0 10.64,10.64 0 0 0 2.83,-1.19 6.89,6.89 0 0 0 2.37,-2.28 2.84,2.84 0 0 0 0.47,-1.53 c -0.07,-0.28 -0.04,-0.77 -0.32,-0.94 z"
                         style="opacity:1;fill:#01a49b;stroke-width:1px"
                         vector-effect="non-scaling-stroke"
                         data-groupcolor="0"
                         id="path198" />
                      <path
                         d="m 268.82,400.43 c -0.46,-0.7 -0.79,-1.47 -1.24,-2.18 A 20.51,20.51 0 0 0 266,396.2 c -1.09,-1.35 -2.25,-2.67 -3.47,-3.91 l -1.72,-1.76 c -0.63,-0.64 -1.36,-1.08 -2,-1.65 l -2,-1.68 a 10,10 0 0 0 -2.22,-1.62 1,1 0 0 0 -1.39,1.38 9.07,9.07 0 0 0 1.6,2.05 l 1.75,1.94 c 0.58,0.65 1.06,1.39 1.7,2 l 1.94,1.75 c 1.26,1.15 2.6,2.25 4,3.28 a 21.61,21.61 0 0 0 2.07,1.48 c 0.77,0.45 1.61,0.77 2.37,1.24 0.09,0.07 0.29,-0.12 0.19,-0.27 z"
                         style="opacity:1;fill:#01a49b;stroke-width:1px"
                         vector-effect="non-scaling-stroke"
                         data-groupcolor="0"
                         id="path200" />
                      <path
                         d="m 301.49,364.87 a 1.24,1.24 0 0 0 -2.36,0 30.34,30.34 0 0 0 -0.86,7.83 c 0,1.24 0.17,2.5 0.25,3.75 0.05,0.66 0.05,1.35 0.14,2 a 4.66,4.66 0 0 0 0.69,1.64 0.39,0.39 0 0 0 0.67,0 4.64,4.64 0 0 0 0.82,-1.63 c 0.14,-0.64 0.2,-1.31 0.3,-2 0.19,-1.27 0.47,-2.53 0.57,-3.81 a 30.18,30.18 0 0 0 -0.22,-7.78 z"
                         style="opacity:1;fill:#01a49b;stroke-width:1px"
                         vector-effect="non-scaling-stroke"
                         data-groupcolor="0"
                         id="path202" />
                      <path
                         d="m 353.54,379.23 a 12.47,12.47 0 0 0 -1.47,0.45 7.75,7.75 0 0 0 -1.64,0.73 l -2.63,1.47 a 19.92,19.92 0 0 0 -2.47,1.73 9.21,9.21 0 0 0 -2.09,2 l -0.09,0.05 a 1.15,1.15 0 0 0 -0.12,1.56 c 0.57,1 1.66,0.63 2.5,0.34 a 12.9,12.9 0 0 0 2.19,-1 16.41,16.41 0 0 0 1.89,-1.15 l 1.77,-1.34 a 17.32,17.32 0 0 0 1.86,-1.43 c 0.26,-0.25 0.46,-0.55 0.72,-0.8 a 5.72,5.72 0 0 0 0.79,-1 c 0.56,-0.84 -0.36,-1.74 -1.21,-1.61 z"
                         style="opacity:1;fill:#01a49b;stroke-width:1px"
                         vector-effect="non-scaling-stroke"
                         data-groupcolor="0"
                         id="path204" />
                      <path
                         d="m 370.25,412.09 a 9.59,9.59 0 0 0 -1.6,-0.13 c -0.55,0 -1.11,-0.1 -1.65,-0.07 -1.05,0 -2.13,0.27 -3.17,0.4 a 32.32,32.32 0 0 0 -3.24,0.58 5.53,5.53 0 0 0 -1.53,0.57 2.54,2.54 0 0 0 -0.54,0.29 c -0.2,0.21 -0.24,0.34 -0.52,0.48 a 0.15,0.15 0 0 0 0,0.28 1.73,1.73 0 0 1 0.63,0.33 2.4,2.4 0 0 0 0.6,0.15 5.58,5.58 0 0 0 1.63,0.16 c 1.07,0 2.11,-0.11 3.17,-0.24 a 21,21 0 0 0 6.37,-1.44 0.75,0.75 0 0 0 -0.15,-1.36 z"
                         style="opacity:1;fill:#01a49b;stroke-width:1px"
                         vector-effect="non-scaling-stroke"
                         data-groupcolor="0"
                         id="path206" />
                      <path
                         d="m 354.28,451 a 8,8 0 0 0 -3.19,-1.57 c -1.07,-0.41 -2.19,-0.68 -3.3,-1 l -3.21,-0.88 a 10.43,10.43 0 0 0 -1.62,-0.42 8.35,8.35 0 0 0 -1.71,0.22 0.18,0.18 0 0 0 -0.12,0.3 c 0.35,0.36 0.64,0.78 1,1.14 a 4.92,4.92 0 0 0 1.49,0.73 l 3.11,1.41 a 34.57,34.57 0 0 0 3.19,1.39 c 1.07,0.37 2.31,1 3.45,0.86 a 1.3,1.3 0 0 0 0.91,-2.18 z"
                         style="opacity:1;fill:#01a49b;stroke-width:1px"
                         vector-effect="non-scaling-stroke"
                         data-groupcolor="0"
                         id="path208" />
                    </g>
                  </g>
                </g>
              </g>
            </g>
          </g>
        </g>
      </g>
    </g>
  </g>
  <g
     id="book"
     data-name="CUSTOM-group"
     data-setup="true"
     data-type="custom"
     stroke="transparent"
     stroke-width="12"
     class=""
     vector-effect="non-scaling-stroke"
     transform="translate(277.97412,-304.24143)">
    <g
       id="g257">
      <g
         id="g255">
        <g
           id="g253">
          <g
             id="g251">
            <g
               id="g249">
              <g
                 id="g247">
                <g
                   id="g245">
                  <g
                     id="g243">
                    <g
                       id="g241">
                      <path
                         d="m 592.44,487.83 c -7.27,-7.5 -16.05,-13.86 -24.61,-19.81 a 0.65,0.65 0 0 0 -1,0.31 h -0.08 a 2.83,2.83 0 0 0 -1.84,1.73 0.29,0.29 0 0 0 0.07,0.24 0.69,0.69 0 0 0 0.06,1.07 l 0.23,0.17 c -1.54,1.23 -3.58,1.53 -4.86,3.13 -0.67,0.84 -0.72,1.33 -1.95,1.57 -0.42,0.08 -0.81,-0.08 -1.23,0.11 -0.8,0.36 -1.13,1.91 -2,2 a 0.29,0.29 0 0 0 -0.29,0.26 h -0.08 a 2.69,2.69 0 0 0 -1.21,0.9 3.36,3.36 0 0 0 -0.63,1.14 c -0.53,-0.3 -1.06,-0.61 -1.59,-0.9 a 0.29,0.29 0 0 0 -0.31,0 0.35,0.35 0 0 0 -0.4,0.05 c -0.21,0.18 -0.36,0.42 -0.58,0.58 a 2.65,2.65 0 0 1 -0.68,0.37 c -0.23,0.1 -0.08,0.37 0.11,0.4 v 0 c -10.68,10.23 -20,22.45 -29,34.1 -2.1,2.69 -3.9,5.22 -1.27,8.2 1.82,2.06 5,3.28 7.34,4.58 l 10.17,5.65 c 5.39,3 11,7.07 17.27,8 5.06,0.8 8.56,-1.41 12.14,-4.72 a 453.14,453.14 0 0 0 32,-32.43 0.67,0.67 0 0 0 0.12,-0.69 7.45,7.45 0 0 0 0.29,-1.15 c 2.77,-4.94 -2.92,-11.49 -6.19,-14.86 z m -38.27,-7.92 a 5.48,5.48 0 0 1 1,-0.67 0.35,0.35 0 0 0 0.15,-0.29 c 0.82,0 0.89,-0.51 1.44,-1 1.16,-1.07 2.54,-0.57 3.6,-1.65 0.42,-0.44 0.68,-1 1.1,-1.46 a 7.77,7.77 0 0 1 2.56,-1.39 4.55,4.55 0 0 0 2,-1.37 c 5.21,3.76 10.34,7.65 15.29,11.76 2.44,2 4.86,4.08 7.23,6.19 1.44,1.27 5.56,4.3 6.54,7.15 v 0 a 7,7 0 0 0 -4.84,4.05 c -2.9,-0.83 -6.3,-3.23 -8,-4.1 q -5.32,-2.81 -10.61,-5.72 c -6.1,-3.37 -12,-7 -18.08,-10.47 a 2.75,2.75 0 0 1 0.62,-1.03 z m 41.07,18.17 a 3,3 0 0 1 -1.68,2.89 0.29,0.29 0 0 0 -0.15,0.22 3.83,3.83 0 0 1 -2.4,0.21 8.65,8.65 0 0 1 4.23,-3.32 z m -23,31.12 c -4,3.89 -8.87,10.32 -14.67,11.09 -6.28,0.84 -12.57,-3.8 -17.79,-6.7 -5.22,-2.9 -10.17,-5.63 -15.24,-8.47 -0.94,-0.53 -3.65,-1.78 -4.13,-2.73 -1.3,-2.55 0.32,-4.83 1.75,-6.69 q 2.7,-3.48 5.47,-6.89 c 7.36,-9.14 15.49,-17.67 22.77,-26.86 0,0 0,0 0,-0.05 8.61,6.51 18.19,11.93 27.57,17.22 3.91,2.21 11.9,8.38 17.3,6.53 -7.63,7.91 -15.17,15.89 -23.05,23.55 z m 18.53,-25 c -3.75,-1 -7.35,-3.54 -10.72,-5.42 -3.37,-1.88 -6.45,-3.65 -9.64,-5.53 -6.76,-4 -13.3,-8.36 -20.12,-12.24 a 2.09,2.09 0 0 0 0.93,-0.65 c 8.56,5.87 17.84,10.9 27,15.82 3.76,2 7.69,4.66 11.73,6.06 1.93,0.67 3.6,0.78 4.85,-0.9 a 0.35,0.35 0 0 0 0.06,-0.35 c 4.81,-3.51 -3.52,-10.09 -6,-12.33 a 257.82,257.82 0 0 0 -23.09,-18.36 0.55,0.55 0 0 0 -0.19,-0.09 c 0.2,-0.17 0.39,-0.35 0.6,-0.51 a 5.66,5.66 0 0 1 0.83,-0.49 1,1 0 0 0 0.14,0.16 221.54,221.54 0 0 1 19.85,15.4 52.49,52.49 0 0 1 8.26,8.53 c 1.33,1.84 2.65,3.94 2.66,6.29 -0.03,3.9 -3.92,5.46 -7.17,4.58 z"
                         style="opacity:1;fill:#6e7ded;stroke-width:1px"
                         vector-effect="non-scaling-stroke"
                         data-groupcolor="0"
                         id="path229" />
                      <path
                         d="m 585,508.38 c -9.14,9.88 -19,19.2 -27.89,29.27 a 0.27,0.27 0 0 0 0.38,0.37 c 10.1,-8.81 19.18,-19 28.28,-28.87 0.46,-0.52 -0.32,-1.29 -0.77,-0.77 z"
                         style="opacity:1;fill:#6e7ded;stroke-width:1px"
                         vector-effect="non-scaling-stroke"
                         data-groupcolor="0"
                         id="path231" />
                      <path
                         d="m 569.74,515.66 c 2.37,-3 4.81,-5.88 7.06,-8.93 a 0.56,0.56 0 0 0 0.1,-0.34 0.73,0.73 0 0 0 -0.1,-1.16 c -7.13,-4.39 -14.48,-9.36 -22.18,-12.69 -1.54,-0.66 -1.88,-1 -3.14,0.11 -2.71,2.27 -4.81,6.89 -6.78,9.83 a 0.39,0.39 0 0 0 0,0.45 0.34,0.34 0 0 0 0.14,0.47 202.74,202.74 0 0 1 24,12.37 0.73,0.73 0 0 0 0.9,-0.11 z m -8.46,-5.85 a 134,134 0 0 0 -15.71,-6.93 c 1.73,-2.31 3.36,-5.47 5.46,-7.39 3.17,-2.87 6.37,0.11 9.4,1.8 q 7.67,4.29 15.12,8.9 c -1,1.13 -1.9,2.28 -2.83,3.45 -0.56,0.7 -2.2,3.37 -3,3.75 -2.34,1.09 -6.32,-2.46 -8.44,-3.58 z"
                         style="opacity:1;fill:#6e7ded;stroke-width:1px"
                         vector-effect="non-scaling-stroke"
                         data-groupcolor="0"
                         id="path233" />
                      <path
                         d="m 584,492.24 a 116.34,116.34 0 0 0 -27,-12.92 c -0.24,-0.08 -0.33,0.28 -0.1,0.37 a 171.44,171.44 0 0 1 26.82,13 0.27,0.27 0 0 0 0.28,-0.45 z"
                         style="opacity:1;fill:#6e7ded;stroke-width:1px"
                         vector-effect="non-scaling-stroke"
                         data-groupcolor="0"
                         id="path235" />
                      <path
                         d="M 589.31,497.7 A 198.48,198.48 0 0 0 567,485.17 c -0.2,-0.1 -0.38,0.2 -0.18,0.3 7.57,4 14.82,8.43 22.21,12.72 0.31,0.19 0.58,-0.29 0.28,-0.49 z"
                         style="opacity:1;fill:#6e7ded;stroke-width:1px"
                         vector-effect="non-scaling-stroke"
                         data-groupcolor="0"
                         id="path237" />
                      <path
                         d="m 589.93,495 c 0.34,0.25 0.77,-0.31 0.45,-0.59 -7.64,-6.7 -16,-12.7 -24,-19 -0.23,-0.18 -0.56,0.13 -0.33,0.32 7.95,6.42 15.65,13.27 23.88,19.27 z"
                         style="opacity:1;fill:#6e7ded;stroke-width:1px"
                         vector-effect="non-scaling-stroke"
                         data-groupcolor="0"
                         id="path239" />
                    </g>
                  </g>
                </g>
              </g>
            </g>
          </g>
        </g>
      </g>
    </g>
  </g>
  <g
     id="CUSTOM-group-5"
     data-name="CUSTOM-group"
     data-setup="true"
     data-type="custom"
     stroke="transparent"
     stroke-width="12"
     class=""
     vector-effect="non-scaling-stroke"
     transform="translate(-805.81234,-583.24778)">
    <g
       id="g280">
      <g
         id="g278">
        <g
           id="g276">
          <g
             id="g274">
            <g
               id="g272">
              <g
                 id="g270">
                <g
                   id="g268">
                  <g
                     id="g266">
                    <g
                       id="g264">
                      <path
                         d="m 602.46,679.61 a 0.47,0.47 0 0 0 -0.08,-0.14 0.64,0.64 0 0 0 -0.34,-1 92.08,92.08 0 0 1 -9.78,-4.26 1,1 0 0 0 -1.45,1.1 0.72,0.72 0 0 0 -0.36,0.77 16.17,16.17 0 0 1 -0.11,8.54 c -0.89,2.72 -3.21,6.49 -6.59,4.33 -6.13,-3.91 1.1,-11.88 3.57,-15.49 a 1.19,1.19 0 0 0 0.12,-0.29 0.68,0.68 0 0 0 0.49,-0.81 c -1.81,-7.14 -4.11,-14.15 -6,-21.27 a 1.09,1.09 0 0 0 -1.55,-0.72 55.58,55.58 0 0 1 -8.48,3.21 1,1 0 0 0 -0.29,0.15 1.27,1.27 0 0 0 -1.51,1.44 c 0.61,3.59 4.93,14.39 3.16,17.11 -0.6,0.93 -4.14,2.18 -5.24,3.22 a 15.45,15.45 0 0 0 -3.55,5.07 c -3.37,7.85 1.22,15.91 7.33,20.9 15.92,13.01 37.2,-2.8 30.66,-21.86 z M 581,703.44 c -13.42,-3.31 -22.82,-24.93 -5,-29.28 a 1.24,1.24 0 0 0 0.94,-1.48 135.47,135.47 0 0 1 -4.28,-17.17 51.32,51.32 0 0 0 7.5,-2.65 160.82,160.82 0 0 0 6.14,19.14 0.91,0.91 0 0 0 -0.64,0.39 c -2.63,3.52 -6,7.19 -6.18,11.82 -0.13,3.3 1.74,6.64 5.13,7.41 7.78,1.77 9.16,-10 7.47,-15.35 a 35.81,35.81 0 0 0 9.15,3.36 0.51,0.51 0 0 0 0,0.21 c 3.07,12.52 -5.92,27.16 -20.23,23.6 z"
                         style="opacity:1;fill:#6e7ded;stroke-width:1px"
                         vector-effect="non-scaling-stroke"
                         data-groupcolor="0"
                         id="path260" />
                      <path
                         d="m 569.53,649.7 c 3.87,3.19 15.2,-7.48 6.89,-12.53 a 7,7 0 0 0 -9.17,1.44 c -2.49,3.29 -1.72,8.09 1.17,10.85 a 1.06,1.06 0 0 0 1.11,0.24 z m 4.54,-11.1 c 7.75,2.37 -1,11.15 -3.75,10.08 a 0.91,0.91 0 0 0 -0.3,-0.67 c -3.62,-3.51 -1.93,-11.24 4.05,-9.41 z"
                         style="opacity:1;fill:#6e7ded;stroke-width:1px"
                         vector-effect="non-scaling-stroke"
                         data-groupcolor="0"
                         id="path262" />
                    </g>
                  </g>
                </g>
              </g>
            </g>
          </g>
        </g>
      </g>
    </g>
  </g>
  <g
     id="CUSTOM-GROUP-1614337517265"
     data-setup="true"
     data-type="custom"
     stroke="transparent"
     stroke-width="12"
     class=""
     vector-effect="non-scaling-stroke"
     transform="translate(-168.33285,29.484842)">
    <g
       id="g301">
      <g
         id="g299">
        <g
           id="g297">
          <g
             id="g295">
            <g
               id="g293">
              <g
                 id="g291">
                <g
                   id="g289">
                  <g
                     id="g287">
                    <g
                       id="g285">
                      <path
                         id="path283"
                         data-name="CUSTOM"
                         d="m 109.35,522.5 -0.06,-0.09 v -0.08 a 1.06,1.06 0 0 0 0,-0.53 c -1.59,-7.53 -3.24,-15.32 -6.51,-22.62 -1.67,-3.7 -4.41,-8.58 -9.35,-9.41 a 14.36,14.36 0 0 0 4.37,-15.34 13.5,13.5 0 0 0 -6.93,-8 13.78,13.78 0 0 0 -10.78,-0.58 c -6.93,2.46 -11,10.47 -9.19,17.85 a 11.66,11.66 0 0 0 8.74,8.85 45.36,45.36 0 0 0 -14.36,19.08 l -1.38,-1 c -5.41,-3.9 -12.72,-9.16 -19.66,-9.24 A 13.06,13.06 0 0 0 46.57,489.86 15.94,15.94 0 0 0 39,479.85 12.45,12.45 0 0 0 29,479.06 c -7.72,2.57 -12.15,10.24 -10.09,17.46 a 11.89,11.89 0 0 0 10.44,8.75 c -2.44,2.34 -3.89,6.14 -4,10.61 -0.18,6.9 1.35,14 2.84,20.83 l 0.52,2.42 a 1.19,1.19 0 0 0 1.17,0.93 H 30 c 8.3,-1.33 16.81,-3 25.28,-4.91 a 1.18,1.18 0 0 0 0.57,-0.31 1.12,1.12 0 0 0 0.68,-0.17 1,1 0 0 0 0.41,-1 c -0.83,-5.66 -2.2,-12.65 -5.58,-17.78 l 0.76,0.29 c 0.69,0.27 1.38,0.53 2,0.83 1.11,0.5 2.2,1.06 3.26,1.61 0.9,0.46 1.83,0.94 2.76,1.38 a 1,1 0 0 0 0.68,0.06 5.18,5.18 0 0 0 5.93,-1.06 c 4.53,2.27 9.73,-2.72 13.55,-7.79 a 102.82,102.82 0 0 0 2.7,17.45 1.1,1.1 0 0 0 0.6,0.77 1.16,1.16 0 0 0 0.78,0.06 0.81,0.81 0 0 0 0.31,0.06 45.2,45.2 0 0 0 8.67,-1.41 l 2.47,-0.56 3.23,-0.66 a 96,96 0 0 0 9.35,-2.2 1.06,1.06 0 0 0 0.73,-0.71 0.63,0.63 0 0 0 0.33,-0.2 0.74,0.74 0 0 0 0.19,-0.56 1.65,1.65 0 0 0 -0.31,-0.75 z M 21.22,496 c -1.59,-5.31 1.06,-11 6.44,-13.78 5,-2.61 8.65,-1.44 10.84,0 3.74,2.47 6.18,7.85 5.79,12.79 -0.27,3.44 -1.85,6 -4.41,7.16 h -0.11 l -0.21,0.08 a 0.53,0.53 0 0 0 -0.15,0.08 8.78,8.78 0 0 1 -2.62,0.55 0.76,0.76 0 0 0 -0.46,-0.08 C 28,503.93 22.91,501.63 21.22,496 Z m 43.91,21.74 c -0.84,0.86 -2,1 -3.82,0.51 l -0.11,-0.1 c -3.14,-2.15 -8,-4.58 -12.18,-4.93 a 0.75,0.75 0 0 0 -0.7,0.37 0.77,0.77 0 0 0 -0.07,0.61 0.82,0.82 0 0 0 0.12,0.48 c 2.88,4.7 4.16,9.77 5.52,15.14 0.26,1 0.53,2.08 0.8,3.11 -5.31,1.21 -10.21,2.22 -15,3.1 -0.71,0.13 -1.47,0.32 -2.28,0.52 a 18,18 0 0 1 -5.21,0.8 c -1.83,-0.14 -2.11,-1.51 -2.41,-3.73 -0.06,-0.46 -0.12,-0.93 -0.21,-1.39 -0.16,-0.83 -0.33,-1.68 -0.51,-2.56 -1.68,-8.31 -3.76,-18.63 3.34,-24.33 a 17.76,17.76 0 0 0 2.69,-0.44 1,1 0 0 0 0.57,0.2 10.06,10.06 0 0 0 6.33,-1.65 c 7.08,-0.55 14.45,4.69 20.39,8.9 l 1.77,1.25 a 1.1,1.1 0 0 0 0.54,0.19 3,3 0 0 1 1.13,2.06 2.34,2.34 0 0 1 -0.7,1.86 z m 8.48,-33.48 a 12.9,12.9 0 0 1 6.27,-15.75 11.59,11.59 0 0 1 9,-0.35 11.13,11.13 0 0 1 6.36,6.12 c 3,7 -1.5,13.68 -7.19,16.35 a 1.1,1.1 0 0 0 -0.38,0.29 c -5.99,0.2 -11.82,-0.5 -14.06,-6.69 z m 24.93,40.31 -3.19,0.72 -2.46,0.5 a 50,50 0 0 0 -7.76,2 c -0.79,-4.06 -1.47,-8.2 -2.12,-12.21 -0.36,-2.21 -0.72,-4.42 -1.1,-6.63 l 0.25,-0.35 a 1.09,1.09 0 0 0 -0.31,-1.53 1.11,1.11 0 0 0 -1.57,0.27 c -5.16,7.32 -9.38,10.67 -12.57,10 a 4.7,4.7 0 0 0 -0.67,-4.15 52.58,52.58 0 0 1 15.21,-20.1 21.79,21.79 0 0 0 6.35,-0.31 1.08,1.08 0 0 0 0.46,-0.09 h 0.2 l 0.44,-0.09 a 0.85,0.85 0 0 0 0.59,-0.5 c 0.33,-0.19 0.67,-0.4 1,-0.64 6.83,0.77 9.42,8.37 11.31,13.92 a 149.85,149.85 0 0 1 4.28,16.7 l 0.06,0.27 a 1.15,1.15 0 0 0 0.24,0.51 c -2.89,0.35 -5.81,1.02 -8.64,1.68 z"
                         style="opacity:1;fill:#6e7ded;stroke-width:1px"
                         vector-effect="non-scaling-stroke"
                         data-groupcolor="0" />
                    </g>
                  </g>
                </g>
              </g>
            </g>
          </g>
        </g>
      </g>
    </g>
  </g>
  <g
     id="scale"
     data-setup="true"
     data-type="custom"
     stroke="transparent"
     stroke-width="12"
     class=""
     vector-effect="non-scaling-stroke"
     transform="translate(-764.62663,-196.64761)">
    <g
       id="g322">
      <g
         id="g320">
        <g
           id="g318">
          <g
             id="g316">
            <g
               id="g314">
              <g
                 id="g312">
                <g
                   id="g310">
                  <g
                     id="g308">
                    <g
                       id="g306">
                      <path
                         id="path304"
                         data-name="CUSTOM"
                         d="m 584.68,757.63 a 1,1 0 0 0 -0.67,-1.18 76.07,76.07 0 0 1 -7.69,-27.67 h 0.26 a 0.91,0.91 0 0 0 0,-1.81 c -5,-0.05 -10.06,0 -15.07,0.21 a 9.86,9.86 0 0 0 -9.43,-4.93 9.54,9.54 0 0 0 -7.29,5.09 107,107 0 0 0 -15.19,0.11 0.89,0.89 0 0 0 -0.49,1.62 1,1 0 0 0 -1,0.64 c -3.19,10.81 -7,21.38 -10.53,32.08 a 0.58,0.58 0 0 0 0.61,0.71 c 0.67,4 4.82,7.07 8.75,7.46 a 10.8,10.8 0 0 0 11,-7.38 0.74,0.74 0 0 0 0,-0.55 1,1 0 0 0 0.17,-0.43 c 0.53,0 1.09,-0.46 0.87,-1.05 a 178.17,178.17 0 0 1 -9.14,-30.84 0.8,0.8 0 0 0 -0.28,-0.46 109.36,109.36 0 0 0 14.37,0.16 8.64,8.64 0 0 0 -0.13,3.89 0.47,0.47 0 0 0 0.88,0.07 c 1.73,0 3.45,0 5.18,-0.07 a 321.25,321.25 0 0 1 0.54,42 c -6.12,-0.88 -12.25,2 -16.3,6.53 a 0.93,0.93 0 0 0 0.12,1.38 0.6,0.6 0 0 0 0.61,0.61 c 12,0.16 24,-0.18 36,-0.38 a 0.9,0.9 0 0 0 0.88,-1.07 0.83,0.83 0 0 0 0,-0.77 c -2.31,-5.31 -10,-6 -15.07,-6.48 0,-14 -0.37,-28 -1.21,-42 l 5.76,-0.21 A 0.81,0.81 0 0 0 562,732 c 0.48,0 1,-0.27 0.91,-0.81 a 10.54,10.54 0 0 0 -0.71,-2.6 c 4,0.17 8.1,0.2 12.14,0.18 a 180.31,180.31 0 0 0 -8.93,27.67 0.43,0.43 0 0 0 0,0.32 0.47,0.47 0 0 0 -0.28,0.62 c 3.42,8.87 16.13,9.89 20.69,1.35 a 0.84,0.84 0 0 0 -1.14,-1.1 z m -58.12,10.43 c -3.65,-0.62 -5.51,-3.11 -7.22,-6 a 0.59,0.59 0 0 0 0.2,0.05 c 5.53,0.31 11.1,0.31 16.65,0.29 -1.66,3.78 -5.36,6.39 -9.63,5.66 z m 10.63,-7.58 c -5.88,0 -11.78,0 -17.65,0.29 a 0.57,0.57 0 0 0 -0.33,0.11 258.86,258.86 0 0 0 9.63,-27.19 136.2,136.2 0 0 0 8.35,26.79 z m 19.43,17.39 a 0.63,0.63 0 0 0 0.08,-0.74 v -0.85 c 4.21,0.8 10.75,1.37 13.21,5.28 -11.24,0.22 -22.5,0.36 -33.74,0.9 4,-3.87 8.71,-5.54 14.22,-6.18 v 0.49 a 0.8,0.8 0 0 0 0.16,0.53 v 0 c -0.39,-0.29 -0.78,0.31 -0.49,0.63 a 4.52,4.52 0 0 0 6.56,-0.06 z M 551,733.27 c 1.19,0 2.38,-0.09 3.57,-0.13 -0.26,14.67 0,29.45 0.67,44.11 a 0.36,0.36 0 0 0 0,0.1 3.91,3.91 0 0 1 -4.29,0.2 0.88,0.88 0 0 0 1.11,-0.78 c 1.03,-14.5 1.02,-29.1 -1.06,-43.5 z m 10.27,-2 c -5.43,0.22 -10.87,0.37 -16.29,0.79 0.6,-3.88 3.18,-7.61 7.38,-8 a 8,8 0 0 1 7.19,3.29 0.62,0.62 0 0 0 0.28,1.15 h 0.46 a 9.4,9.4 0 0 1 1,2.75 z m 5.17,25.28 c 3.17,-8.13 5.3,-16.64 8.52,-24.74 a 78.36,78.36 0 0 0 7.13,24.5 103.34,103.34 0 0 0 -15.54,0.2 z m 0.42,1.29 c 5.42,0.18 10.83,0.18 16.24,0.47 a 0.77,0.77 0 0 0 0.91,0.1 c -4.9,5.93 -12.76,5.66 -17.18,-0.58 z"
                         style="opacity:1;fill:#6e7ded;stroke-width:1px"
                         vector-effect="non-scaling-stroke"
                         data-groupcolor="0" />
                    </g>
                  </g>
                </g>
              </g>
            </g>
          </g>
        </g>
      </g>
    </g>
  </g>
  <g
     id="check"
     data-name="CUSTOM-group"
     data-setup="true"
     data-type="custom"
     stroke="transparent"
     stroke-width="12"
     class=""
     vector-effect="non-scaling-stroke"
     transform="translate(231.2442,-78.755268)">
    <g
       id="g346">
      <g
         id="g344">
        <g
           id="g342">
          <g
             id="g340">
            <g
               id="g338">
              <g
                 id="g336">
                <g
                   id="g334">
                  <g
                     id="g332">
                    <g
                       id="g330">
                      <path
                         d="m 527.21,680.31 a 0.75,0.75 0 0 0 -0.63,-1 57.16,57.16 0 0 0 -6.92,-0.33 0.44,0.44 0 0 0 -0.34,0.21 0.46,0.46 0 0 0 -0.41,0.55 193.1,193.1 0 0 0 7.84,20.94 0.91,0.91 0 0 0 1,0.4 32.45,32.45 0 0 1 9.49,-0.08 0.8,0.8 0 0 0 0.86,-0.76 0.47,0.47 0 0 0 0.4,-0.34 c 4.23,-12.55 7.91,-25.43 11.49,-38.19 a 0.88,0.88 0 0 0 -1.23,-1 0.73,0.73 0 0 0 -0.48,-0.12 51.13,51.13 0 0 1 -8.3,-0.2 0.55,0.55 0 0 0 -0.6,0.52 1,1 0 0 0 -0.2,0.38 c -2.46,9.18 -5,18.35 -7.51,27.51 a 66.64,66.64 0 0 0 -4.46,-8.49 z m 5.46,11.33 c 2.83,-9.9 5.57,-19.82 8.34,-29.74 a 24.13,24.13 0 0 0 6.89,0.49 353.66,353.66 0 0 0 -10.28,37 0.67,0.67 0 0 0 -0.15,-0.06 A 31.43,31.43 0 0 0 531,699 c -3.18,0.2 -3.33,-0.5 -4.61,-3.5 -2.19,-5.13 -4.21,-10.35 -6.42,-15.47 a 61.44,61.44 0 0 0 6.34,0.7 c 1.66,3.62 3.27,7.25 4.73,11 a 0.87,0.87 0 0 0 1.63,-0.09 z"
                         style="opacity:1;fill:#6e7ded;stroke-width:1px"
                         vector-effect="non-scaling-stroke"
                         data-groupcolor="0"
                         id="path326" />
                      <path
                         d="m 546.62,682.51 c 1.54,8.14 2.2,17.55 -5.73,22.75 -6.95,4.56 -16.17,2.86 -22.41,-2 -6.7,-5.23 -10,-14.93 -4.94,-22.51 4,-5.92 11.41,-8 18.12,-8.19 a 0.76,0.76 0 0 0 0,-1.52 c -8.22,-0.86 -17.22,2.27 -21.16,10 -4.29,8.47 -0.76,18.59 6.42,24.19 7.33,5.72 18.23,7.2 26,1.57 8.26,-6 7.78,-15.95 6.08,-25 -0.28,-1.51 -2.68,-0.8 -2.38,0.71 z"
                         style="opacity:1;fill:#6e7ded;stroke-width:1px"
                         vector-effect="non-scaling-stroke"
                         data-groupcolor="0"
                         id="path328" />
                    </g>
                  </g>
                </g>
              </g>
            </g>
          </g>
        </g>
      </g>
    </g>
  </g>
  <g
     id="arrow"
     data-setup="true"
     data-type="custom"
     stroke="transparent"
     stroke-width="12"
     class=""
     vector-effect="non-scaling-stroke"
     transform="translate(-137.79857,-3.3100195)">
    <g
       id="g367">
      <g
         id="g365">
        <g
           id="g363">
          <g
             id="g361">
            <g
               id="g359">
              <g
                 id="g357">
                <g
                   id="g355">
                  <g
                     id="g353">
                    <g
                       id="g351">
                      <path
                         id="path349"
                         data-name="CUSTOM"
                         d="m 71.58,402.74 a 146.6,146.6 0 0 1 -27.29,18.47 c -0.6,0.32 -0.84,1.41 0,1.67 a 43,43 0 0 0 6.71,1.55 c -11.67,12.31 -22.62,29.49 -16.39,46.83 0,0.08 -0.1,0.16 -0.16,0.24 a 0.59,0.59 0 0 0 0.71,0.88 c 0.23,0.07 0.53,-0.07 0.46,-0.35 a 0.5,0.5 0 0 0 0,-0.12 90.9,90.9 0 0 0 7.48,-11 c 3.57,5.36 7.71,10.27 14.23,11.9 0.69,0.17 1,-0.42 1,-1 a 0.85,0.85 0 0 0 0.12,-1.27 C 54,465.27 55.63,454.36 56.68,448.1 A 63.41,63.41 0 0 1 63,429.5 l 8.79,5.66 a 1,1 0 0 0 1.53,-0.85 Q 72.44,419 73,403.62 c 0.06,-0.73 -0.75,-1.45 -1.42,-0.88 z m -0.21,29.88 -8.13,-5.29 a 1,1 0 0 0 -1.5,0.38 64.89,64.89 0 0 0 -7.6,24.11 c -0.58,5.64 -1.47,13.54 1.75,18.65 -5.45,-2.07 -9,-7 -12.13,-11.76 a 0.91,0.91 0 0 0 -1.53,0.18 c -2.17,3.89 -4.51,7.66 -7,11.38 C 32,452.18 41.14,437 53.53,424.32 a 0.88,0.88 0 0 0 -0.56,-1.41 37.1,37.1 0 0 1 -6,-1.1 145.34,145.34 0 0 0 24.18,-16.34 q -0.41,13.59 0.22,27.15 z"
                         style="opacity:1;fill:#6e7ded;stroke-width:1px"
                         vector-effect="non-scaling-stroke"
                         data-groupcolor="0" />
                    </g>
                  </g>
                </g>
              </g>
            </g>
          </g>
        </g>
      </g>
    </g>
  </g>
  <g
     id="magnif"
     style="stroke-width:12"
     transform="matrix(1,0,0,-1,-701.80897,943.5602)">
    <g
       id="g384">
      <g
         id="g382">
        <g
           id="g380">
          <g
             id="g378">
            <g
               id="g376">
              <g
                 id="g374">
                <path
                   id="path370"
                   style="opacity:1;fill:#6e7ded;stroke-width:0.568472px"
                   d="m 580.33008,230.55078 c -3.37699,0.0128 -6.91125,2.07528 -7.90039,5.20899 -1.31886,4.17826 0.49568,9.15948 4.42383,11.17187 a 0.43772342,0.43772342 0 0 0 0.41992,0 c 9.30588,3.96793 15.64967,-11.04647 6.28125,-15.67383 -0.99056,-0.48746 -2.09895,-0.71129 -3.22461,-0.70703 z m -0.24024,0.91602 c 0.78856,-0.0275 1.58253,0.0757 2.34571,0.32617 4.18395,1.3757 5.90568,6.78184 4.23437,10.48828 -1.67131,3.70644 -5.48622,4.96815 -9.16992,4.05859 a 0.38656094,0.38656094 0 0 0 -0.17578,-0.18164 8.5839267,8.5839267 0 0 1 -4.32617,-8.58398 c 0.35103,-3.43641 3.67472,-5.98825 7.09179,-6.10742 z"
                   transform="matrix(1.7591017,0,0,-1.7591017,-537.01229,1159.8263)" />
                <path
                   id="path372"
                   style="opacity:1;fill:#6e7ded;stroke-width:0.568472px"
                   d="m 580.57031,227.85742 c -10.42282,-0.24055 -15.75222,16.42313 -6.52539,20.92578 a 9.7663484,9.7663484 0 0 0 -1.54687,3.33789 7.8790215,7.8790215 0 0 0 -1.16602,-0.31836 0.47183173,0.47183173 0 0 0 -0.53906,0.5 79.898735,79.898735 0 0 0 -5.34961,12.64258 c -0.51731,1.7111 -0.11894,3.12211 1.22266,3.91797 4.67284,5.22426 9.40261,-12.69007 9.91992,-14.61719 a 0.26149711,0.26149711 0 0 0 0,-0.1875 0.29560542,0.29560542 0 0 0 -0.14258,-0.42578 c -0.25013,-0.11938 -0.50591,-0.21603 -0.76172,-0.31836 a 6.0883348,6.0883348 0 0 0 0.33594,-0.98242 c 0.2615,-0.76175 0.53966,-1.52979 0.75,-2.30859 a 0.23875823,0.23875823 0 0 0 0,-0.14258 c 5.04803,1.35296 10.87409,-0.95378 13.00586,-5.93359 2.48422,-5.81547 0.40463,-13.24711 -5.81446,-15.44141 -1.17673,-0.41889 -2.31044,-0.62355 -3.38867,-0.64844 z m -0.52343,0.98242 c 1.01857,-0.03 2.09371,0.11541 3.21289,0.46875 6.25319,1.96123 8.19593,9.62327 5.22851,15.09766 -2.42169,4.50798 -7.19636,5.33235 -11.74414,4.70703 a 0.34108318,0.34108318 0 0 0 -0.26758,-0.29492 c -10.89085,-3.03955 -6.27588,-19.68874 3.57032,-19.97852 z m -5.54297,20.13672 0.17187,0.0801 0.0273,0.0352 a 10.675904,10.675904 0 0 0 1.70508,0.67578 0.15348743,0.15348743 0 0 0 -0.0508,0.0684 c -0.25581,0.50025 -0.46597,1.02956 -0.69336,1.54687 -0.12506,0.28424 -0.24976,0.56164 -0.36914,0.85157 a 6.5885901,6.5885901 0 0 1 -0.26758,0.69921 0.35245262,0.35245262 0 0 0 -0.14648,0.0684 l -0.8418,-0.30664 c -0.26149,-0.0909 -0.52987,-0.19277 -0.80273,-0.30078 a 17.565784,17.565784 0 0 1 1.26758,-3.41797 z m -3.0293,3.82032 c 0.63669,0.26718 1.3127,0.44466 1.95508,0.67773 0.85839,0.28424 1.71652,0.58476 2.59765,0.80078 -1.10852,2.1943 -1.93136,4.51427 -2.8125,6.82227 -0.73901,1.94986 -2.92858,9.84055 -6.13476,7.0664 a 0.39793038,0.39793038 0 0 0 -0.30664,-0.10351 c -1.54056,-2.03513 0.84668,-5.81518 1.70508,-7.87305 1.02325,-2.43874 2.16044,-4.87798 2.99609,-7.39062 z"
                   transform="matrix(1.7591017,0,0,-1.7591017,-537.01229,1159.8263)" />
              </g>
            </g>
          </g>
        </g>
      </g>
    </g>
  </g>
  <g
     id="puzzle"
     data-setup="true"
     data-type="custom"
     stroke-width="12"
     class=""
     vector-effect="non-scaling-stroke"
     data-cx="533.7193603515625"
     data-cy="605.3153076171875"
     stroke="transparent"
     transform="translate(281.71419,117.02106)">
    <g
       id="g411">
      <g
         id="g409">
        <g
           id="g407">
          <g
             id="g405">
            <g
               id="g403">
              <g
                 id="g401">
                <g
                   id="g399">
                  <g
                     id="g397">
                    <g
                       id="g395">
                      <path
                         id="path393"
                         data-name="CUSTOM"
                         d="m 545.68,635.13 a 54.21,54.21 0 0 0 3.47,-8.63 1.15,1.15 0 0 0 0,-0.82 1.23,1.23 0 0 0 -0.91,-2 c -7.7,-0.29 -12.21,-9 -7.21,-15.16 4.28,-5.29 11.17,-3.44 16.09,-0.33 a 0.64,0.64 0 0 0 1,-0.41 1.15,1.15 0 0 0 0.33,-0.3 c 1.75,-2.44 3.53,-4.87 5.26,-7.33 0.74,-1 1.92,-2.34 1.32,-3.74 -0.6,-1.4 -3,-1.95 -4.2,-2.51 q -3.28,-1.51 -6.61,-2.94 c 8.1,-4.72 7.31,-18.1 -0.54,-23.08 -9,-5.7 -21.42,2.36 -17.88,12.64 -1.75,-1.29 -3.66,-2.4 -5.5,-3.55 -1.31,-0.83 -3.77,-3.21 -5.43,-2.91 -1.24,0.22 -1.75,1.92 -2.21,2.84 a 83.54,83.54 0 0 0 -3.76,8.23 0.62,0.62 0 0 0 0,1.22 c 6.51,1.84 12.16,8.08 11.23,15.21 -0.6,4.53 -4,8.52 -8.89,7.83 -3.69,-0.52 -7.32,-2.82 -10.16,-5 a 1.09,1.09 0 0 0 -1.26,-0.1 0.62,0.62 0 0 0 -1,-0.06 70.65,70.65 0 0 0 -4.57,7.49 c -0.65,1.2 -2.36,3.34 -1.94,4.79 0.38,1.3 2,1.48 3,1.8 a 36.61,36.61 0 0 1 8.07,3.62 c -7.95,4.69 -7.27,17 1,21.37 8.27,4.37 18.7,-2.56 17.35,-11.9 2.29,1.7 4.65,3.32 7,4.88 1.27,0.83 2.58,1.9 4.2,1.51 a 4.7,4.7 0 0 0 2.75,-2.66 z m -4.77,0 c -1.33,-0.27 -3.18,-2 -4.38,-2.68 -1.84,-1.09 -3.67,-2.19 -5.57,-3.18 a 0.63,0.63 0 0 0 -0.87,0.69 1.1,1.1 0 0 0 -0.65,1 c 0.36,7.88 -6.87,14.31 -14.5,9.9 -7.63,-4.41 -5.64,-13.33 0,-18.29 0.83,-0.07 1.48,-1.37 0.63,-1.93 a 37.56,37.56 0 0 0 -4.26,-2.45 c -1.61,-0.76 -3.62,-1.08 -5.13,-2 -2.27,-1.32 -0.33,-3.6 0.59,-5.42 0.84,-1.67 1.72,-3.32 2.55,-5 a 1.11,1.11 0 0 0 0.2,0.24 c 6.93,5.43 18.31,9.39 22.07,-1.64 2.85,-8.38 -3.24,-17.26 -11.46,-19.12 0.8,-1.24 1.53,-2.51 2.25,-3.79 0.72,-1.28 1.94,-4.89 3.62,-4.81 1.3,0.06 3.58,2.27 4.69,3 a 51.33,51.33 0 0 0 5,3 0.91,0.91 0 0 0 1.26,-0.67 0.72,0.72 0 0 0 0.65,-1 c -3,-10.24 9.45,-17.23 16.85,-9.49 6,6.24 3.13,14.75 -3.64,18.71 -1,0.58 -0.13,2.05 0.89,1.74 0.28,-0.08 0.55,-0.18 0.81,-0.28 1.39,0.75 2.79,1.48 4.19,2.21 1.4,0.73 3.62,1.43 4.92,2.49 1.08,0.87 1.28,0.76 0.43,2.34 a 21.67,21.67 0 0 1 -1.52,2.08 l -3.75,5.22 c -6.24,-4.77 -15.6,-4.2 -19.21,3.67 -3.42,7.47 1.95,15.1 9.5,16.15 -1.07,2.62 -2.6,10.05 -6.16,9.35 z"
                         style="opacity:1;fill:#6e7ded;stroke-width:1px"
                         vector-effect="non-scaling-stroke"
                         data-groupcolor="0" />
                    </g>
                  </g>
                </g>
              </g>
            </g>
          </g>
        </g>
      </g>
    </g>
  </g>
  <g
     id="g435"
     data-setup="true"
     data-type="custom"
     stroke="transparent"
     stroke-width="12"
     class=""
     vector-effect="non-scaling-stroke"
     transform="translate(-128.887,-10.551954)">
    <g
       id="g433">
      <g
         id="g431">
        <g
           id="g429">
          <g
             id="g427">
            <g
               id="g425">
              <g
                 id="g423">
                <g
                   id="g421">
                  <g
                     id="g419">
                    <g
                       id="g417">
                      <path
                         id="path415"
                         data-name="CUSTOM"
                         d="m 111.28,480.76 a 2.62,2.62 0 1 1 -2.62,-2.62 2.61,2.61 0 0 1 2.62,2.62 z"
                         style="opacity:1;fill:#6e7ded;stroke-width:1px"
                         vector-effect="non-scaling-stroke"
                         data-groupcolor="0" />
                    </g>
                  </g>
                </g>
              </g>
            </g>
          </g>
        </g>
      </g>
    </g>
  </g>
  <g
     id="CUSTOM-GROUP-1614337517267"
     data-setup="true"
     data-type="custom"
     stroke="transparent"
     stroke-width="12"
     class=""
     vector-effect="non-scaling-stroke"
     transform="translate(-186.08382,9.2064389)">
    <g
       id="g482">
      <g
         id="g480">
        <g
           id="g478">
          <g
             id="g476">
            <g
               id="g474">
              <g
                 id="g472">
                <g
                   id="g470">
                  <g
                     id="g468">
                    <g
                       id="g466">
                      <path
                         id="path464"
                         data-name="CUSTOM"
                         d="m 142.21,400.73 a 7.54,7.54 0 1 1 7.54,-7.54 7.54,7.54 0 0 1 -7.54,7.54 z m 0,-13.07 a 5.54,5.54 0 1 0 5.54,5.53 5.54,5.54 0 0 0 -5.54,-5.53 z"
                         style="opacity:1;fill:#6e7ded;stroke-width:1px"
                         vector-effect="non-scaling-stroke"
                         data-groupcolor="0" />
                    </g>
                  </g>
                </g>
              </g>
            </g>
          </g>
        </g>
      </g>
    </g>
  </g>
  <g
     id="g505"
     data-setup="true"
     data-type="custom"
     stroke="transparent"
     stroke-width="12"
     class=""
     vector-effect="non-scaling-stroke"
     transform="translate(210.28152,-238.28578)">
    <g
       id="g503">
      <g
         id="g501">
        <g
           id="g499">
          <g
             id="g497">
            <g
               id="g495">
              <g
                 id="g493">
                <g
                   id="g491">
                  <g
                     id="g489">
                    <g
                       id="g487">
                      <circle
                         id="circle485"
                         data-name="CUSTOM"
                         cx="490"
                         cy="643"
                         r="6"
                         style="opacity:1;fill:#6e7ded;stroke-width:1px"
                         vector-effect="non-scaling-stroke"
                         data-groupcolor="0" />
                    </g>
                  </g>
                </g>
              </g>
            </g>
          </g>
        </g>
      </g>
    </g>
  </g>
  <g
     id="CUSTOM-GROUP-1614337517268"
     data-setup="true"
     data-type="custom"
     stroke-width="12"
     class=""
     vector-effect="non-scaling-stroke"
     data-cx="496.5"
     data-cy="592.5"
     stroke="transparent"
     transform="translate(155.83992,-148.38997)">
    <g
       id="g525">
      <g
         id="g523">
        <g
           id="g521">
          <g
             id="g519">
            <g
               id="g517">
              <g
                 id="g515">
                <g
                   id="g513">
                  <g
                     id="g511">
                    <g
                       id="g509">
                      <circle
                         id="circle507"
                         data-name="CUSTOM"
                         cx="496.5"
                         cy="592.5"
                         r="3.5"
                         style="opacity:1;fill:#6e7ded;stroke-width:1px"
                         vector-effect="non-scaling-stroke"
                         data-groupcolor="0" />
                    </g>
                  </g>
                </g>
              </g>
            </g>
          </g>
        </g>
      </g>
    </g>
  </g>
  <g
     id="CUSTOM-group-9"
     data-name="CUSTOM-group"
     data-setup="true"
     data-type="custom"
     stroke="transparent"
     stroke-width="12"
     class=""
     vector-effect="non-scaling-stroke"
     transform="translate(-422.82893,297.54233)">
    <g
       id="g548">
      <g
         id="g546">
        <g
           id="g544">
          <g
             id="g542">
            <g
               id="g540">
              <g
                 id="g538">
                <g
                   id="g536">
                  <g
                     id="g534">
                    <g
                       id="g532">
                      <path
                         d="m 255.23,158.64 a 28.35,28.35 0 0 0 -7.23,-16.77 44.19,44.19 0 0 0 -15,-11 c -5.68,-2.59 -11.9,-4.41 -18.08,-4 a 20.27,20.27 0 0 0 -8.73,2.55 15.94,15.94 0 0 0 -6.32,6.32 11.72,11.72 0 0 0 -1,8.63 10.57,10.57 0 0 0 5.13,6.73 7.35,7.35 0 0 0 4,0.86 4.48,4.48 0 0 0 3.26,-1.92 8.79,8.79 0 0 0 1.48,-3.95 13,13 0 0 0 0,-4.4 18.14,18.14 0 0 0 -11,-13.2 c -5.58,-2.32 -12,-2.1 -17.87,-0.48 a 34.18,34.18 0 0 0 -15.59,9.06 c -4.13,4.33 -6.59,10.22 -5.53,15.93 a 17.51,17.51 0 0 0 3.37,7.81 14.56,14.56 0 0 0 3.06,2.82 11.52,11.52 0 0 0 3.74,1.58 5.32,5.32 0 0 0 1.77,0.19 2,2 0 0 0 1.14,-0.48 3.89,3.89 0 0 0 0.56,-0.58 c 0.19,-0.23 0.33,-0.49 0.51,-0.73 0.18,-0.24 0.27,-0.53 0.39,-0.8 a 6.68,6.68 0 0 0 0.26,-0.87 9.53,9.53 0 0 0 -4.87,-9.88 13.33,13.33 0 0 0 -3.9,-1.39 21.66,21.66 0 0 0 -8.69,0.28 36.06,36.06 0 0 0 -15.9,8.33 41.15,41.15 0 0 0 -10.49,14.91 37.41,37.41 0 0 0 -2.7,18.14 v 0 a 0.85,0.85 0 0 1 -1.68,0.23 37.86,37.86 0 0 1 1.76,-19.43 42.3,42.3 0 0 1 4.4,-8.86 l 1.42,-2 c 0.48,-0.68 1,-1.29 1.56,-1.94 a 44.8,44.8 0 0 1 3.38,-3.65 38.82,38.82 0 0 1 17.47,-9.53 25.57,25.57 0 0 1 10.29,-0.36 16.93,16.93 0 0 1 5.08,1.79 13.25,13.25 0 0 1 2.29,1.59 10.42,10.42 0 0 1 1,1 11.33,11.33 0 0 1 0.9,1.07 13,13 0 0 1 2.54,10.65 10.18,10.18 0 0 1 -0.45,1.42 c -0.19,0.45 -0.42,0.9 -0.66,1.34 a 9,9 0 0 1 -2,2.34 5.9,5.9 0 0 1 -3.22,1.31 8.65,8.65 0 0 1 -3,-0.28 15.15,15.15 0 0 1 -5,-2.15 18.45,18.45 0 0 1 -3.93,-3.65 20.68,20.68 0 0 1 -4.05,-9.6 22.6,22.6 0 0 1 -0.24,-2.61 23,23 0 0 1 0.13,-2.62 20.13,20.13 0 0 1 1.27,-5.08 25.41,25.41 0 0 1 2.38,-4.57 29.14,29.14 0 0 1 3.21,-3.95 37.13,37.13 0 0 1 17.25,-9.65 35.3,35.3 0 0 1 9.9,-1.14 30,30 0 0 1 5,0.58 26.31,26.31 0 0 1 4.8,1.54 20.86,20.86 0 0 1 8,6.11 19.52,19.52 0 0 1 4.2,9.14 15.23,15.23 0 0 1 0,5.13 10.83,10.83 0 0 1 -1.94,4.87 6.84,6.84 0 0 1 -2.09,1.87 6.39,6.39 0 0 1 -2.69,0.83 9.25,9.25 0 0 1 -5.17,-1.14 12.55,12.55 0 0 1 -6,-8.1 14.41,14.41 0 0 1 -0.34,-5.07 13.41,13.41 0 0 1 1.52,-4.85 17.68,17.68 0 0 1 7.05,-7 21.85,21.85 0 0 1 9.48,-2.73 32.1,32.1 0 0 1 9.73,1 49.8,49.8 0 0 1 9.15,3.26 46.49,46.49 0 0 1 15.54,11.48 33.57,33.57 0 0 1 5.31,8.19 27.42,27.42 0 0 1 2.4,9.52 0.85,0.85 0 0 1 -1.69,0.1 z"
                         style="opacity:1;fill:#505bda;stroke-width:1px"
                         vector-effect="non-scaling-stroke"
                         data-groupcolor="0"
                         id="path528" />
                      <path
                         d="m 251.66,159.42 a 22.56,22.56 0 0 0 2.22,1.27 4.77,4.77 0 0 0 2.28,0.54 7.93,7.93 0 0 0 2.34,-0.71 l 1.19,-0.51 0.15,-0.07 h 0.08 0.15 c 0.17,0 0.28,-0.05 0.41,-0.07 h 0.36 0.21 a 0.55,0.55 0 0 1 0.17,0 h 0.07 l 0.12,0.06 a 0.51,0.51 0 0 1 0.21,0.2 0.55,0.55 0 0 1 0,0.55 0.5,0.5 0 0 1 -0.2,0.24 v 0 h -0.05 -0.1 l 0.33,-0.27 a 49.44,49.44 0 0 0 -2.52,5.81 47.49,47.49 0 0 1 -2.63,6 1.13,1.13 0 0 1 -1.54,0.44 1.11,1.11 0 0 1 -0.51,-0.58 v -0.07 c -0.78,-2 -1.53,-4.07 -2.2,-6.13 a 41,41 0 0 1 -1.54,-6.36 0.53,0.53 0 0 1 1,-0.35 41,41 0 0 1 2.8,5.92 c 0.78,2 1.47,4.08 2.14,6.15 l -2.08,-0.21 a 60,60 0 0 0 3,-5.48 c 1,-1.9 1.91,-3.86 3.08,-5.7 l 0.33,-0.26 h -0.06 v 0 0 a 0.55,0.55 0 0 0 -0.2,0.22 0.64,0.64 0 0 0 0,0.55 0.86,0.86 0 0 0 0.19,0.19 h 0.12 -0.36 a 1.29,1.29 0 0 0 -0.24,0 c 0,0 0,0 0,0 h -0.07 l -0.15,0.06 -1.22,0.48 a 9.36,9.36 0 0 1 -2.67,0.7 5.6,5.6 0 0 1 -2.74,-0.64 26.38,26.38 0 0 1 -2.36,-1.24 0.52,0.52 0 1 1 0.52,-0.9 v 0 z"
                         style="opacity:1;fill:#505bda;stroke-width:1px"
                         vector-effect="non-scaling-stroke"
                         data-groupcolor="0"
                         id="path530" />
                    </g>
                  </g>
                </g>
              </g>
            </g>
          </g>
        </g>
      </g>
    </g>
  </g>
  <g
     id="CUSTOM-group-10"
     data-name="CUSTOM-group"
     data-setup="true"
     data-type="custom"
     stroke="transparent"
     stroke-width="12"
     class=""
     vector-effect="non-scaling-stroke"
     transform="translate(364.9173,-33.706049)">
    <g
       id="g571">
      <g
         id="g569">
        <g
           id="g567">
          <g
             id="g565">
            <g
               id="g563">
              <g
                 id="g561">
                <g
                   id="g559">
                  <g
                     id="g557">
                    <g
                       id="g555">
                      <path
                         d="m 431.57,392.94 a 36,36 0 0 0 17.16,-18.28 30.37,30.37 0 0 0 1.5,-18.31 30.79,30.79 0 0 0 -5.31,-11.78 26.33,26.33 0 0 0 -3.88,-3.94 0.25,0.25 0 0 0 -0.36,0 0.24,0.24 0 0 0 0,0.35 42.21,42.21 0 0 1 3,4.47 36.66,36.66 0 0 1 4.73,11.32 A 28.92,28.92 0 0 1 447,374 34,34 0 0 1 431.45,391 c -1.09,-10.91 -6.86,-20.44 -16.14,-24.55 -6,-2.63 -12.62,-1.89 -17.07,1.21 -4.69,3.27 -7.06,9.09 -3.82,16.2 5.18,11.65 17.4,15.07 29.26,12.12 a 36.38,36.38 0 0 0 5.59,-1.88 c 0,1.05 0,2.12 -0.06,3.19 a 39.49,39.49 0 0 1 -16.47,29.39 54.06,54.06 0 0 1 -11,6.17 59.59,59.59 0 0 1 -12.15,3.72 0.67,0.67 0 1 0 0.22,1.32 54.73,54.73 0 0 0 12.69,-3.16 50.93,50.93 0 0 0 11.5,-6.42 41.58,41.58 0 0 0 17.56,-30.94 36.45,36.45 0 0 0 0.05,-4.43 m -2.42,-0.9 c -0.81,-10.38 -6.07,-19.56 -14.85,-23.4 a 15.4,15.4 0 0 0 -14.65,1 c -3.88,2.65 -5.82,7.37 -3.3,13.27 4.68,10.74 16,13.83 26.86,11.16 a 34.52,34.52 0 0 0 5.94,-2"
                         style="opacity:1;fill:#505bda;fill-rule:evenodd;stroke-width:1px"
                         vector-effect="non-scaling-stroke"
                         data-groupcolor="0"
                         id="path551" />
                      <path
                         d="m 389.5,437.44 6.14,0.66 6.59,0.81 10.64,1.9 a 0.44,0.44 0 0 1 0.39,0.49 0.45,0.45 0 0 1 -0.5,0.38 L 402,441 l -6.61,-0.42 c -0.45,0 -5.42,-0.48 -7.42,-0.7 a 2.86,2.86 0 0 1 -1.81,-0.79 1.64,1.64 0 0 1 0.2,-1.74 22.44,22.44 0 0 1 3.26,-2.91 l 11.08,-9.57 c 3.84,-3.25 4.84,-4.61 5.7,-3.71 0.19,0.17 0.24,0.42 0,1.09 a 1.84,1.84 0 0 1 -0.44,0.59 45.47,45.47 0 0 1 -3.9,3.53 l -10.82,9.95 c -0.1,0.09 -1,0.58 -1.78,1.12"
                         style="opacity:1;fill:#505bda;fill-rule:evenodd;stroke-width:1px"
                         vector-effect="non-scaling-stroke"
                         data-groupcolor="0"
                         id="path553" />
                    </g>
                  </g>
                </g>
              </g>
            </g>
          </g>
        </g>
      </g>
    </g>
  </g>
  <g
     transform="translate(-333.84596,-44.052546)"
     data-group="true"
     id="swivles">
    <g
       data-initial-transform="{x:0,y:0}"
       id="g595"
       style="opacity:1"
       data-setup="true"
       data-type="custom"
       stroke="transparent"
       stroke-width="12"
       class=""
       vector-effect="non-scaling-stroke">
      <g
         id="g593">
        <g
           id="g591">
          <g
             id="g589">
            <g
               id="g587">
              <g
                 id="g585">
                <g
                   id="g583">
                  <g
                     id="g581">
                    <g
                       id="g579">
                      <g
                         id="g577">
                        <path
                           id="path575"
                           data-name="CUSTOM"
                           d="m 312.56,866 -0.3,-0.62 c -41.69,-88.14 -90.07,-76.94 -128.94,-67.94 -14.59,3.38 -28.37,6.57 -39.82,3.93 -20,-4.62 -30.76,-26.49 -42.17,-49.65 C 88.8,726.28 75.84,700 49.45,693.31 c -26,-6.56 -48.77,7.92 -63.27,21.23 a 154.31,154.31 0 0 0 -25.56,30.84 l -0.36,0.6 -1,-1.15 0.18,-0.31 a 157.37,157.37 0 0 1 25.83,-31.18 c 9.36,-8.59 19,-14.89 28.61,-18.74 12,-4.82 24.12,-5.76 35.86,-2.8 12.1,3.05 22.53,10.47 31.88,22.68 8.23,10.75 14.68,23.84 20.91,36.49 11.25,22.85 21.87,44.42 41.24,48.89 11.16,2.58 24.8,-0.58 39.23,-3.92 39.34,-9.11 88.29,-20.45 130.47,68.72 l 0.16,0.33 z"
                           style="opacity:1;fill:#6e7ded;stroke-width:1px"
                           vector-effect="non-scaling-stroke"
                           data-groupcolor="0" />
                      </g>
                    </g>
                  </g>
                </g>
              </g>
            </g>
          </g>
        </g>
      </g>
    </g>
    <g
       data-initial-transform="{x:0,y:0}"
       id="g617"
       style="opacity:1"
       data-setup="true"
       data-type="custom"
       stroke="transparent"
       stroke-width="12"
       class=""
       vector-effect="non-scaling-stroke">
      <g
         id="g615">
        <g
           id="g613">
          <g
             id="g611">
            <g
               id="g609">
              <g
                 id="g607">
                <g
                   id="g605">
                  <g
                     id="g603">
                    <g
                       id="g601">
                      <g
                         id="g599">
                        <path
                           id="path597"
                           data-name="CUSTOM"
                           d="m 306.15,870.59 -0.3,-0.62 C 265.67,786.76 219,798 181.54,807.1 c -11.29,2.73 -21.95,5.3 -31.74,5.3 a 43.2,43.2 0 0 1 -9.31,-0.93 c -19.36,-4.2 -30,-24.84 -41.18,-46.7 -12.1,-23.56 -24.6,-47.91 -49.21,-54.86 -45.23,-12.78 -82.61,36.62 -89.64,46.65 l -0.57,0.8 -0.89,-1.24 0.36,-0.51 c 7.13,-10.17 45,-60.21 91.08,-47.2 11.29,3.18 21.1,10.28 30,21.71 7.84,10 14.06,22.16 20.07,33.86 11.06,21.56 21.51,41.91 40.25,46 11.8,2.56 25.73,-0.81 40.47,-4.37 19,-4.6 40.62,-9.82 62.18,-3.25 24.74,7.53 45.57,29.41 63.67,66.89 l 0.15,0.33 z"
                           style="opacity:1;fill:#6e7ded;stroke-width:1px"
                           vector-effect="non-scaling-stroke"
                           data-groupcolor="0" />
                      </g>
                    </g>
                  </g>
                </g>
              </g>
            </g>
          </g>
        </g>
      </g>
    </g>
    <g
       data-initial-transform="{x:-1.2194492885045634,y:0.007630079619730168}"
       stroke="transparent"
       data-cy="803.5559692382812"
       data-cx="127.43055725097656"
       transform="translate(-1.2194493,0.00763008)"
       id="g639"
       style="opacity:1"
       data-setup="true"
       data-type="custom"
       stroke-width="12"
       class=""
       vector-effect="non-scaling-stroke">
      <g
         id="g637">
        <g
           id="g635">
          <g
             id="g633">
            <g
               id="g631">
              <g
                 id="g629">
                <g
                   id="g627">
                  <g
                     id="g625">
                    <g
                       id="g623">
                      <g
                         id="g621">
                        <path
                           id="path619"
                           data-name="CUSTOM"
                           d="m 307.32,881.28 -0.29,-0.56 c -41.5,-78.71 -89.69,-68.05 -128.4,-59.47 -11.65,2.58 -22.66,5 -32.76,5 a 48.77,48.77 0 0 1 -9.6,-0.88 c -20,-4 -30.93,-23.51 -42.52,-44.18 C 81.26,758.91 68.35,735.88 42.93,729.3 -3.79,717.23 -42.41,764 -49.67,773.45 l -0.56,0.73 -0.92,-1.18 0.4,-0.52 c 7.36,-9.61 46.48,-56.93 94,-44.64 11.64,3 21.77,9.73 31,20.53 8.09,9.52 14.51,21 20.72,32 11.42,20.39 22.21,39.64 41.57,43.49 12.2,2.42 26.58,-0.76 41.82,-4.14 19.65,-4.35 41.92,-9.28 64.17,-3.07 25.54,7.12 47,27.82 65.74,63.27 l 0.18,0.35 z"
                           style="opacity:1;fill:#6e7ded;stroke-width:1px"
                           vector-effect="non-scaling-stroke"
                           data-groupcolor="0" />
                      </g>
                    </g>
                  </g>
                </g>
              </g>
            </g>
          </g>
        </g>
      </g>
    </g>
  </g>
  <g
     id="icon"
     data-stories="false"
     width="100"
     height="99.99961853027344"
     transform="matrix(0.29065982,0,0,0.29065982,223.23111,360.53766)"
     data-type="custom"
     data-setup="true"
     stroke="transparent"
     stroke-width="12"
     vector-effect="non-scaling-stroke"
     class="" />
  <defs
     id="defs750">
    <clipPath
       id="clip-path-page-0-16199652802054743">
      <rect
         id="CLIP-CONTAINER"
         width="595.28"
         height="841.89"
         style="fill:none"
         data-free-ratio="true" />
    </clipPath>
  </defs>
  <defs
     id="defs752"
     style="fill: rgb(0, 0, 0); opacity: 1;" />
  <defs
     id="defs864"
     style="fill: rgb(0, 0, 0); opacity: 1;">
    <linearGradient
       id="CUSTOM-GROUP-pffhkhh8purple_black"
       style="fill: rgb(0, 0, 0); opacity: 1;"
       data-setup="true"
       data-type="custom"
       stroke="transparent"
       stroke-width="12"
       vector-effect="non-scaling-stroke">
      <g
         id="g758">
        <g
           id="g756">
          <stop
             style="stop-color: rgb(102, 0, 102); stop-opacity: 1; fill: rgb(0, 0, 0); opacity: 1; stroke-width: 1px;"
             offset="0"
             id="purple"
             data-groupcolor="0"
             vector-effect="non-scaling-stroke" />
          <stop
             style="stop-color: rgb(0, 0, 0); stop-opacity: 1; fill: rgb(0, 0, 0); opacity: 1; stroke-width: 1px;"
             offset="1"
             id="black"
             data-groupcolor="0"
             vector-effect="non-scaling-stroke" />
        </g>
      </g>
    </linearGradient>
    <linearGradient
       xlink:href="#purple_black"
       id="CUSTOM-GROUP-pffhkhh8linearGradient880"
       x1="60.818562"
       y1="120.11902"
       x2="196"
       y2="8.5e-05"
       gradientUnits="userSpaceOnUse"
       gradientTransform="matrix(-0.5,0.8660254,0.8660254,0.5,61.466404,-36.211959)"
       style="fill: rgb(0, 0, 0); opacity: 1;"
       data-setup="true"
       data-type="custom"
       stroke="transparent"
       stroke-width="12"
       vector-effect="non-scaling-stroke">
      <g
         id="g763">
        <g
           id="g761" />
      </g>
    </linearGradient>
    <linearGradient
       id="CUSTOM-GROUP-eik96gf5purple_black"
       style="fill: rgb(0, 0, 0); opacity: 1;"
       data-setup="true"
       data-type="custom"
       stroke="transparent"
       stroke-width="12"
       vector-effect="non-scaling-stroke">
      <g
         id="g772">
        <g
           id="g770">
          <stop
             style="stop-color: rgb(102, 0, 102); stop-opacity: 1; fill: rgb(0, 0, 0); opacity: 1; stroke-width: 1px;"
             offset="0"
             id="stop766"
             data-groupcolor="0"
             vector-effect="non-scaling-stroke" />
          <stop
             style="stop-color: rgb(0, 0, 0); stop-opacity: 1; fill: rgb(0, 0, 0); opacity: 1; stroke-width: 1px;"
             offset="1"
             id="stop768"
             data-groupcolor="0"
             vector-effect="non-scaling-stroke" />
        </g>
      </g>
    </linearGradient>
    <linearGradient
       xlink:href="#purple_black"
       id="CUSTOM-GROUP-eik96gf5linearGradient880"
       x1="60.818562"
       y1="120.11902"
       x2="196"
       y2="8.5e-05"
       gradientUnits="userSpaceOnUse"
       gradientTransform="matrix(-0.5,0.8660254,0.8660254,0.5,61.466404,-36.211959)"
       style="fill: rgb(0, 0, 0); opacity: 1;"
       data-setup="true"
       data-type="custom"
       stroke="transparent"
       stroke-width="12"
       vector-effect="non-scaling-stroke">
      <g
         id="g777">
        <g
           id="g775" />
      </g>
    </linearGradient>
    <linearGradient
       id="CUSTOM-GROUP-6mos99tppurple_black"
       style="fill: rgb(0, 0, 0); opacity: 1;"
       data-setup="true"
       data-type="custom"
       stroke="transparent"
       stroke-width="12"
       vector-effect="non-scaling-stroke">
      <g
         id="g786">
        <g
           id="g784">
          <stop
             style="stop-color: rgb(102, 0, 102); stop-opacity: 1; fill: rgb(0, 0, 0); opacity: 1; stroke-width: 1px;"
             offset="0"
             id="stop780"
             data-groupcolor="0"
             vector-effect="non-scaling-stroke" />
          <stop
             style="stop-color: rgb(0, 0, 0); stop-opacity: 1; fill: rgb(0, 0, 0); opacity: 1; stroke-width: 1px;"
             offset="1"
             id="stop782"
             data-groupcolor="0"
             vector-effect="non-scaling-stroke" />
        </g>
      </g>
    </linearGradient>
    <linearGradient
       xlink:href="#purple_black"
       id="CUSTOM-GROUP-6mos99tplinearGradient880"
       x1="60.818562"
       y1="120.11902"
       x2="196"
       y2="8.5e-05"
       gradientUnits="userSpaceOnUse"
       gradientTransform="matrix(-0.5,0.8660254,0.8660254,0.5,61.466404,-36.211959)"
       style="fill: rgb(0, 0, 0); opacity: 1;"
       data-setup="true"
       data-type="custom"
       stroke="transparent"
       stroke-width="12"
       vector-effect="non-scaling-stroke">
      <g
         id="g791">
        <g
           id="g789" />
      </g>
    </linearGradient>
    <linearGradient
       id="CUSTOM-GROUP-9pdmy9qopurple_black"
       style="fill: rgb(0, 0, 0); opacity: 1;"
       data-setup="true"
       data-type="custom"
       stroke="transparent"
       stroke-width="12"
       vector-effect="non-scaling-stroke">
      <g
         id="g800">
        <g
           id="g798">
          <stop
             style="stop-color: rgb(102, 0, 102); stop-opacity: 1; fill: rgb(0, 0, 0); opacity: 1; stroke-width: 1px;"
             offset="0"
             id="stop794"
             data-groupcolor="0"
             vector-effect="non-scaling-stroke" />
          <stop
             style="stop-color: rgb(0, 0, 0); stop-opacity: 1; fill: rgb(0, 0, 0); opacity: 1; stroke-width: 1px;"
             offset="1"
             id="stop796"
             data-groupcolor="0"
             vector-effect="non-scaling-stroke" />
        </g>
      </g>
    </linearGradient>
    <linearGradient
       xlink:href="#purple_black"
       id="CUSTOM-GROUP-9pdmy9qolinearGradient880"
       x1="60.818562"
       y1="120.11902"
       x2="196"
       y2="8.5e-05"
       gradientUnits="userSpaceOnUse"
       gradientTransform="matrix(-0.5,0.8660254,0.8660254,0.5,61.466404,-36.211959)"
       style="fill: rgb(0, 0, 0); opacity: 1;"
       data-setup="true"
       data-type="custom"
       stroke="transparent"
       stroke-width="12"
       vector-effect="non-scaling-stroke">
      <g
         id="g805">
        <g
           id="g803" />
      </g>
    </linearGradient>
    <linearGradient
       id="CUSTOM-GROUP-mfhix9ywpurple_black"
       style="fill: rgb(0, 0, 0); opacity: 1;"
       data-setup="true"
       data-type="custom"
       stroke="transparent"
       stroke-width="12"
       vector-effect="non-scaling-stroke">
      <g
         id="g814">
        <g
           id="g812">
          <stop
             style="stop-color: rgb(102, 0, 102); stop-opacity: 1; fill: rgb(0, 0, 0); opacity: 1; stroke-width: 1px;"
             offset="0"
             id="stop808"
             data-groupcolor="0"
             vector-effect="non-scaling-stroke" />
          <stop
             style="stop-color: rgb(0, 0, 0); stop-opacity: 1; fill: rgb(0, 0, 0); opacity: 1; stroke-width: 1px;"
             offset="1"
             id="stop810"
             data-groupcolor="0"
             vector-effect="non-scaling-stroke" />
        </g>
      </g>
    </linearGradient>
    <linearGradient
       xlink:href="#purple_black"
       id="CUSTOM-GROUP-mfhix9ywlinearGradient880"
       x1="60.818562"
       y1="120.11902"
       x2="196"
       y2="8.5e-05"
       gradientUnits="userSpaceOnUse"
       gradientTransform="matrix(-0.5,0.8660254,0.8660254,0.5,61.466404,-36.211959)"
       style="fill: rgb(0, 0, 0); opacity: 1;"
       data-setup="true"
       data-type="custom"
       stroke="transparent"
       stroke-width="12"
       vector-effect="non-scaling-stroke">
      <g
         id="g819">
        <g
           id="g817" />
      </g>
    </linearGradient>
    <linearGradient
       id="CUSTOM-GROUP-fyze4tv9purple_black"
       style="fill: rgb(0, 0, 0); opacity: 1;"
       data-setup="true"
       data-type="custom"
       stroke="transparent"
       stroke-width="12"
       vector-effect="non-scaling-stroke">
      <g
         id="g828">
        <g
           id="g826">
          <stop
             style="stop-color: rgb(102, 0, 102); stop-opacity: 1; fill: rgb(0, 0, 0); opacity: 1; stroke-width: 1px;"
             offset="0"
             id="stop822"
             data-groupcolor="0"
             vector-effect="non-scaling-stroke" />
          <stop
             style="stop-color: rgb(0, 0, 0); stop-opacity: 1; fill: rgb(0, 0, 0); opacity: 1; stroke-width: 1px;"
             offset="1"
             id="stop824"
             data-groupcolor="0"
             vector-effect="non-scaling-stroke" />
        </g>
      </g>
    </linearGradient>
    <linearGradient
       xlink:href="#purple_black"
       id="CUSTOM-GROUP-fyze4tv9linearGradient880"
       x1="60.818562"
       y1="120.11902"
       x2="196"
       y2="8.5e-05"
       gradientUnits="userSpaceOnUse"
       gradientTransform="matrix(-0.5,0.8660254,0.8660254,0.5,61.466404,-36.211959)"
       style="fill: rgb(0, 0, 0); opacity: 1;"
       data-setup="true"
       data-type="custom"
       stroke="transparent"
       stroke-width="12"
       vector-effect="non-scaling-stroke">
      <g
         id="g833">
        <g
           id="g831" />
      </g>
    </linearGradient>
    <linearGradient
       id="CUSTOM-GROUP-nie0n1e5purple_black"
       style="fill: rgb(0, 0, 0); opacity: 1;"
       data-setup="true"
       data-type="custom"
       stroke="transparent"
       stroke-width="12"
       vector-effect="non-scaling-stroke">
      <g
         id="g842">
        <g
           id="g840">
          <stop
             style="stop-color: rgb(102, 0, 102); stop-opacity: 1; fill: rgb(0, 0, 0); opacity: 1; stroke-width: 1px;"
             offset="0"
             id="stop836"
             data-groupcolor="0"
             vector-effect="non-scaling-stroke" />
          <stop
             style="stop-color: rgb(0, 0, 0); stop-opacity: 1; fill: rgb(0, 0, 0); opacity: 1; stroke-width: 1px;"
             offset="1"
             id="stop838"
             data-groupcolor="0"
             vector-effect="non-scaling-stroke" />
        </g>
      </g>
    </linearGradient>
    <linearGradient
       xlink:href="#purple_black"
       id="CUSTOM-GROUP-nie0n1e5linearGradient880"
       x1="60.818562"
       y1="120.11902"
       x2="196"
       y2="8.5e-05"
       gradientUnits="userSpaceOnUse"
       gradientTransform="matrix(-0.5,0.8660254,0.8660254,0.5,61.466404,-36.211959)"
       style="fill: rgb(0, 0, 0); opacity: 1;"
       data-setup="true"
       data-type="custom"
       stroke="transparent"
       stroke-width="12"
       vector-effect="non-scaling-stroke">
      <g
         id="g847">
        <g
           id="g845" />
      </g>
    </linearGradient>
    <linearGradient
       id="CUSTOM-GROUP-9j7b779ipurple_black"
       style="fill: rgb(0, 0, 0); opacity: 1;"
       data-setup="true"
       data-type="custom"
       stroke="transparent"
       stroke-width="12"
       vector-effect="non-scaling-stroke">
      <g
         id="g856">
        <g
           id="g854">
          <stop
             style="stop-color: rgb(102, 0, 102); stop-opacity: 1; fill: rgb(0, 0, 0); opacity: 1; stroke-width: 1px;"
             offset="0"
             id="stop850"
             data-groupcolor="0"
             vector-effect="non-scaling-stroke" />
          <stop
             style="stop-color: rgb(0, 0, 0); stop-opacity: 1; fill: rgb(0, 0, 0); opacity: 1; stroke-width: 1px;"
             offset="1"
             id="stop852"
             data-groupcolor="0"
             vector-effect="non-scaling-stroke" />
        </g>
      </g>
    </linearGradient>
    <linearGradient
       xlink:href="#purple_black"
       id="CUSTOM-GROUP-9j7b779ilinearGradient880"
       x1="60.818562"
       y1="120.11902"
       x2="196"
       y2="8.5e-05"
       gradientUnits="userSpaceOnUse"
       gradientTransform="matrix(-0.5,0.8660254,0.8660254,0.5,61.466404,-36.211959)"
       style="fill: rgb(0, 0, 0); opacity: 1;"
       data-setup="true"
       data-type="custom"
       stroke="transparent"
       stroke-width="12"
       vector-effect="non-scaling-stroke">
      <g
         id="g861">
        <g
           id="g859" />
      </g>
    </linearGradient>
  </defs>
</svg>
