<svg xmlns="http://www.w3.org/2000/svg" xmlns:xlink="http://www.w3.org/1999/xlink" class="document-svg-magnetic ready" data-fonts="[&quot;Montserrat&quot;]" viewBox="0 0 595 842"><path fill="#01a49b" stroke="transparent" stroke-width="1" d="M205 790c-27-15-63-3-89-19-24-14-31-44-30-71 2-28 10-54 9-81 0-15-4-31-14-42-12-13-31-18-49-19-48-4-95 13-139 32-45 19-89 41-137 47l-13 2c-3-1-49-2-69-9-21-8-77 0-86 45s93 124 85 203-21 154 57 169c79 15 173-37 237-13s172-48 229-118h0c15-14 27-30 34-49 9-28 1-63-25-77z" data-cx="-89.7" data-cy="803.6" data-groupcolor="0" data-setup="true" data-type="custom" opacity=".6" vector-effect="non-scaling-stroke"/><path fill="#660266" stroke="transparent" stroke-width="1" d="M91 134A221 221 0 00-8 13C-33-2-61-14-89-24a249 249 0 00-31-11l-1-1h0c-37-10-95-18-129 18-53 56-86 217-44 298 27 52 79 92 140 83 24-4 44-17 65-28 40-22 84-39 123-63 25-15 50-35 60-63 8-24 5-51-3-75z" data-cx="-107.2" data-cy="159.7" data-groupcolor="0" data-name="CUSTOM" data-setup="true" data-type="custom" vector-effect="non-scaling-stroke"/><path fill="#660266" stroke="transparent" stroke-width="1" d="M778 30c-10-42-32-73-61-95-45-36-106-50-157-55-79-8-142 59-145 62v1c-12 12-22 26-27 42-9 28-1 62 24 76 26 14 61 3 87 18 23 13 30 43 29 70-2 26-10 52-9 79 0 14 4 29 13 40 12 13 30 18 48 19 22 2 45-1 67-7 19-5 40-11 56-24 22-19 36-46 50-71 15-30 26-62 29-96a187 187 0 00-4-59z" data-cx="583.5" data-cy="83.5" data-groupcolor="0" data-name="CUSTOM" data-setup="true" data-type="custom" vector-effect="non-scaling-stroke"/><path fill="#6e7ded" stroke="transparent" stroke-width="1" d="M610 111c-3-8-5-17-6-26a123 123 0 00-42-79c-26-24-60-41-108-56h0l-1 2h1c47 14 81 32 107 54 16 14 27 30 34 48 4 10 6 21 7 31l7 27c6 19 17 33 33 45s36 19 52 24h1v-1h0c-34-11-71-26-85-69z" data-groupcolor="0" data-name="CUSTOM" data-setup="true" data-type="custom" vector-effect="non-scaling-stroke"/><path fill="#6e7ded" stroke="transparent" stroke-width="1" d="M629 92l-6-27c-1-10-3-21-7-31-7-18-19-34-34-48-26-23-61-41-108-55h-1v1h0c48 15 82 32 108 55 15 14 27 30 33 47 4 10 6 21 8 31l6 27c6 19 17 34 34 45 16 12 35 19 52 24v1l1-2h-1c-33-11-71-26-85-68z" data-groupcolor="0" data-name="CUSTOM" data-setup="true" data-type="custom" vector-effect="non-scaling-stroke"/><path fill="#6e7ded" stroke="transparent" stroke-width="1" d="M734 148c-34-11-71-26-85-68l-6-27c-2-10-3-21-7-31-7-18-19-34-35-49-26-23-60-40-107-54h-1v1h0c48 14 82 32 107 55 16 13 28 29 34 47 4 10 6 21 8 31l6 27c6 19 17 34 34 45 16 12 35 19 52 24v1l1-2z" data-groupcolor="0" data-name="CUSTOM" data-setup="true" data-type="custom" opacity=".5" vector-effect="non-scaling-stroke"/><g fill="#6e7ded" stroke="transparent" stroke-width="1" data-setup="true" data-type="custom"><path d="M746 659a1 1 0 00-1-2l-20-4a1 1 0 000 0 1 1 0 00-2 0l-7 33c-3 9-7 20-7 29v1a1 1 0 000 1 140 140 0 0016 5 1 1 0 001-1 1 1 0 002 0c7-20 12-42 18-62zm-20 61a142 142 0 00-16-4h0a1 1 0 000 0c4-10 6-21 8-31l7-30a126 126 0 0019 4c-7 20-14 41-18 62a1 1 0 000-1zM722 739a102 102 0 003-10 1 1 0 00-1-2l-14-3a1 1 0 00-1 1 1 1 0 00-2 0l-5 13a2 2 0 001 1l10 3c2 1 5 3 7 2l2-5zm-4 2l-3-1-4-1-5-2a96 96 0 014-11l12 4-2 5-2 6z" data-groupcolor="0" vector-effect="non-scaling-stroke"/></g><path fill="#fff" stroke="transparent" stroke-width="1" d="M-22 213v-1a1 1 0 010 0l4-2a1 1 0 011 0v1l-5 2h0zm9-5a1 1 0 010 0 1 1 0 010 0l4-3a1 1 0 011 0 1 1 0 010 1l-5 2a1 1 0 010 1zm9-4a1 1 0 01-1-1 1 1 0 010 0l5-3a1 1 0 010 0 1 1 0 010 1l-4 2v1zm8-6H3a1 1 0 011-1l3-3a1 1 0 011 0 1 1 0 010 1l-4 3h0zm8-6a1 1 0 01-1-1l4-4a1 1 0 011 1l-4 3a1 1 0 010 1zm7-7a1 1 0 01-1-1 1 1 0 010 0l3-4a1 1 0 011 1l-3 3a1 1 0 010 1zm6-8a1 1 0 010 0 1 1 0 01-1-1l3-4h1l-3 5a1 1 0 010 0zm5-9h0a1 1 0 010 0l2-5a1 1 0 111 1l-3 4a1 1 0 010 0zm4-9h0l1-5a1 1 0 011 0h0l-1 5a1 1 0 01-1 0zm3-9h0a1 1 0 01-1-1l1-5a1 1 0 111 0l-1 5a1 1 0 010 1zm1-10v0a1 1 0 010-1v-5a1 1 0 010 0v0a1 1 0 011 0v5a1 1 0 01-1 1zm0-10v-1a42 42 0 00-1-4 1 1 0 010-1 1 1 0 011 0 44 44 0 011 5 1 1 0 01-1 1zm-2-10a1 1 0 010 0 37 37 0 00-2-5h0a1 1 0 011 0 36 36 0 012 5 1 1 0 010 0h-1zm-4-9a1 1 0 01-1 0 39 39 0 00-3-4h0a1 1 0 011 0 42 42 0 013 4 1 1 0 010 0 1 1 0 010 0zm-7-7a1 1 0 010 0l-4-3a1 1 0 011-1l4 3a1 1 0 01-1 1zm-8-6h0l-4-2a1 1 0 110-1l5 2a1 1 0 01-1 1zm-9-4a1 1 0 010 0l-4-2a1 1 0 010-1l5 2h0a1 1 0 01-1 1zm-9-4h0l-5-1a1 1 0 010-1 1 1 0 010 0l5 1a1 1 0 011 1h-1zm-10-2h0l-5-1a1 1 0 010 0v-1l5 1a1 1 0 011 1h-1z" data-groupcolor="0" data-name="CUSTOM-group" data-setup="true" data-type="custom" opacity=".9" vector-effect="non-scaling-stroke"/><path fill="#8996f7" stroke="transparent" stroke-width="1" d="M622 460h0a1 1 0 01-1 0v-1a1 1 0 011-1 1 1 0 010 1v1a1 1 0 010 0zm0-6h0v-5a1 1 0 011-1 1 1 0 010 1v5h-1zm2-10h-1l1-5a1 1 0 011 0 1 1 0 010 0l-1 5a1 1 0 010 0zm2-9a1 1 0 010 0 1 1 0 010-1l2-5a1 1 0 011 1l-2 4a1 1 0 01-1 1zm4-9h0a1 1 0 010-1l2-5a1 1 0 111 1l-2 4a1 1 0 01-1 1zm5-9a1 1 0 010 0 1 1 0 010-1l3-4a1 1 0 110 1l-2 4a1 1 0 01-1 0zm6-8a1 1 0 010 0 1 1 0 010-1l3-4a1 1 0 011 1l-3 4a1 1 0 01-1 0zm7-7a1 1 0 010 0 1 1 0 010-1l4-3a1 1 0 010 0l-3 4a1 1 0 01-1 0zm8-6a1 1 0 010-1h0l4-3h1a1 1 0 01-1 1l-4 2h0zm8-6a1 1 0 010 0v-1l5-2h0a1 1 0 010 1l-4 2h-1zm33-3h0a28 28 0 01-5-1 1 1 0 010-1h1a27 27 0 004 1h1a1 1 0 01-1 1zm5 0a1 1 0 010-1 7 7 0 004-2 1 1 0 011 0h0a8 8 0 01-5 3zm-29-1a1 1 0 010-1l5-2h0a1 1 0 010 1l-4 2h-1zm15-2a1 1 0 010 0 38 38 0 01-4-2h-1-1a1 1 0 011-1h0a1 1 0 010 0 1 1 0 011-1v1l3-1a1 1 0 111 1h-3a33 33 0 003 2 1 1 0 010 1h0zm19-4h0a8 8 0 00-5-1 1 1 0 010-1 1 1 0 010 0 9 9 0 015 1 1 1 0 010 1 1 1 0 010 0zm-15-1a1 1 0 010-1h5a1 1 0 110 1h-5zm-12-1a1 1 0 01-1 0 36 36 0 01-3-4 1 1 0 011 0 32 32 0 003 3 1 1 0 010 1 1 1 0 010 0zm-7-8a1 1 0 010 0 31 31 0 01-2-4 1 1 0 010-1 1 1 0 011 0 28 28 0 002 5 1 1 0 010 0 1 1 0 01-1 0zm-3-9a1 1 0 010 0 32 32 0 01-1-5 1 1 0 011-1h0a1 1 0 010 1 30 30 0 001 4 1 1 0 01-1 1zm0-10h0a1 1 0 01-1-1 23 23 0 012-4v-1a1 1 0 011 1 22 22 0 00-2 5 1 1 0 010 0zm3-9a1 1 0 010 0 1 1 0 010-1 32 32 0 013-4h1a1 1 0 010 1 32 32 0 00-3 4 1 1 0 01-1 0zm7-8a1 1 0 010-1l4-3a1 1 0 010 1l-4 3a1 1 0 010 0zm8-6h0a1 1 0 010-1l4-2a1 1 0 011 1l-5 2h0zm9-5a1 1 0 01-1 0 1 1 0 011 0l4-3 1 1a1 1 0 010 0l-5 2a1 1 0 010 1zm9-4h0a1 1 0 010 0l5-2a1 1 0 110 1l-5 1v1zm9-3a1 1 0 010 0v-1l5-1a1 1 0 011 0l-1 1-4 1zm10-3a1 1 0 010-1l5-1a1 1 0 110 1l-5 1zm10-2a1 1 0 01-1 0 1 1 0 011-1l5-1a1 1 0 010 1h0l-5 1z" data-groupcolor="0" data-name="CUSTOM" data-setup="true" data-type="custom" vector-effect="non-scaling-stroke"/><g fill="#01a49b" stroke="transparent" stroke-width="1" data-cx="311.9" data-cy="426.3" data-name="CUSTOM-group" data-setup="true" data-type="custom"><path d="M-88 647c-4-5-11-8-18-10-14-3-30-2-42 8-9 8-15 23-10 35 3 7 8 12 13 17a95 95 0 017 7 37 37 0 016 10 1 1 0 000 0 2 2 0 001 2 16 16 0 000 11v1h1a16 16 0 006 7c8 4 22 3 26-6 2-6-1-12-3-18a1 1 0 00-1 0v-11c1-4 3-8 6-11l7-9a48 48 0 004-11c1-8 2-16-3-22zm-14 82c-3 5-9 6-14 6a15 15 0 01-12-6 39 39 0 0013 2 42 42 0 008-1 41 41 0 004-1l2-1a10 10 0 01-1 1zm2-8a13 13 0 010 5 13 13 0 00-4 1l-3 1a39 39 0 01-8 1 42 42 0 01-14-1 16 16 0 01-2-6 36 36 0 0018 4c5 0 10-1 13-5zm-3-7a45 45 0 012 4 1 1 0 00-1 1 10 10 0 01-5 4 20 20 0 01-7 1 44 44 0 01-17-4h0a18 18 0 010-3h15a53 53 0 0013-3zm-17-24a199 199 0 006 24h-3a51 51 0 01-7 0h0a136 136 0 00-4-35 20 20 0 007-1l1 12zm31-21l-5 12-9 10c-4 6-6 14-3 21a49 49 0 01-5 1 196 196 0 01-7-31l-1-5a19 19 0 008-7c2-3 4-9-1-11-5-3-8 4-9 8a35 35 0 000 9 18 18 0 01-7 1l-2-5c0-4-2-12-7-10s-3 9-1 12a12 12 0 009 5h0l4 35-6-1h0c0-5-4-9-7-13l-12-13a26 26 0 01-6-18 31 31 0 017-17c9-12 24-15 38-12 7 1 14 3 19 7 6 6 5 15 3 22zm-29-3c0-2 1-4 4-5 2-1 3 2 3 4-1 4-4 8-8 10a31 31 0 011-9zm-12 11a12 12 0 01-4-2 9 9 0 01-4-5c-1-2 0-9 4-5 2 1 2 4 3 6l1 6zM-160 689a3 3 0 00-3 0l-1 1a5 5 0 00-1 0h0-1l-1 1h0-1a3 3 0 00-1 1h0-1a5 5 0 00-1 1 1 1 0 000 2 3 3 0 001 0h1a5 5 0 003 0 11 11 0 003-1 7 7 0 003-2 3 3 0 000-2v-1zM-158 649l-1-2a21 21 0 00-2-2l-3-4-2-2-2-1-2-2a10 10 0 00-2-2 1 1 0 00-1 2 9 9 0 001 2l2 2 2 2 2 1 4 4a22 22 0 002 1l2 1s0 0 0 0zM-125 614a1 1 0 00-2 0 30 30 0 00-1 7v6a5 5 0 001 2h0a5 5 0 001-2l1-2v-4a30 30 0 000-7zM-73 628a12 12 0 00-2 0 8 8 0 00-1 1l-3 2a20 20 0 00-2 1 9 9 0 00-2 2h0a1 1 0 00-1 2h3a13 13 0 002-1 16 16 0 002-1l2-1a17 17 0 002-2s0 0 0 0a6 6 0 001-1c1-1 0-2-1-2zM-56 661a10 10 0 00-2 0h-5a32 32 0 00-3 1 6 6 0 00-2 0 3 3 0 000 0l-1 1h0a2 2 0 011 1 2 2 0 001 0 6 6 0 001 0h3a21 21 0 007-2 1 1 0 000-1zM-72 700a8 8 0 00-4-2l-3-1-3-1a10 10 0 00-2 0 8 8 0 00-1 0h0l1 1a5 5 0 001 1l3 2a35 35 0 003 1l4 1a1 1 0 001-2z" data-groupcolor="0" vector-effect="non-scaling-stroke"/></g><g fill="#6e7ded" stroke="transparent" stroke-width="1" data-name="CUSTOM-group" data-setup="true" data-type="custom"><path d="M870 184c-7-8-16-14-24-20a1 1 0 00-1 0h0a3 3 0 00-2 2h0a1 1 0 000 1h0c-1 2-3 2-5 3 0 1 0 2-2 2h-1l-2 2h0a3 3 0 00-1 1 3 3 0 00-1 1h-2 0-1a3 3 0 01-1 1h1c-11 10-20 22-29 34-3 3-4 5-2 8l8 5 10 5c5 3 11 8 17 8 5 1 9-1 12-4a453 453 0 0032-33 1 1 0 000 0 7 7 0 001-2c2-4-3-11-7-14zm-38-8a5 5 0 011-1h0l2-1 3-2 1-1a8 8 0 013-2 5 5 0 002-1 285 285 0 0123 18c1 1 5 4 6 7h0a7 7 0 00-5 4l-8-4-10-6-18-10a3 3 0 010-1zm41 18a3 3 0 01-1 3h-1a4 4 0 01-2 0 9 9 0 014-3zm-23 31c-4 4-9 10-14 11-7 1-13-4-18-7l-15-8-5-3c-1-2 1-5 2-7l6-6 22-27s0 0 0 0l28 17c4 2 12 8 17 6l-23 24zm19-25l-11-5-10-6-20-12a2 2 0 001-1l27 16 12 6c2 1 4 1 5-1h0c5-4-4-10-6-13a258 258 0 00-23-18 1 1 0 000 0v-1a6 6 0 011 0 1 1 0 000 0 222 222 0 0120 16 52 52 0 018 8l3 6c0 4-4 6-7 5z" data-groupcolor="0" vector-effect="non-scaling-stroke"/><path d="M863 204l-28 29v1c11-9 20-19 29-29l-1-1zM848 211l7-9a1 1 0 000 0 1 1 0 000-1l-22-13h-4l-6 10v1h0a203 203 0 0124 13 1 1 0 001-1zm-9-5a134 134 0 00-15-7l5-8c3-3 6 0 9 2l16 9-3 3-3 4c-3 1-7-2-9-3zM862 188a116 116 0 00-27-13s0 0 0 0a171 171 0 0127 13h0zM867 193a198 198 0 00-22-12s0 0 0 0l22 13v-1zM868 191v-1c-7-7-16-13-24-19 0 0 0 0 0 0l24 20z" data-groupcolor="0" vector-effect="non-scaling-stroke"/></g><g fill="#6e7ded" stroke="transparent" stroke-width="1" data-name="CUSTOM-group" data-setup="true" data-type="custom"><path d="M-203 96h0a1 1 0 00-1-1 92 92 0 01-10-4 1 1 0 00-1 1 1 1 0 000 1 16 16 0 010 8c-1 3-4 7-7 5-6-4 1-12 4-16a1 1 0 000 0 1 1 0 000-1l-6-21a1 1 0 00-1-1 56 56 0 01-9 3 1 1 0 000 0 1 1 0 00-2 2c1 4 5 14 3 17l-5 3a15 15 0 00-3 5c-4 8 1 16 7 21 16 13 37-3 31-22zm-22 24c-13-3-23-25-5-29a1 1 0 001-2 135 135 0 01-4-17 51 51 0 007-2 161 161 0 006 19 1 1 0 000 0c-3 4-6 7-6 12 0 3 1 7 5 7 8 2 9-10 7-15a36 36 0 009 3 1 1 0 000 1c3 12-6 27-20 23zM-236 66c4 4 15-7 7-12a7 7 0 00-10 1c-2 4-1 8 2 11a1 1 0 001 0zm4-11c8 3-1 12-3 10a1 1 0 00-1 0c-3-4-2-11 4-10z" data-groupcolor="0" vector-effect="non-scaling-stroke"/></g><path fill="#6e7ded" stroke="transparent" stroke-width="1" d="M-59 552h0a1 1 0 000-1c-2-7-3-15-7-22-1-4-4-9-9-10a14 14 0 004-15 14 14 0 00-6-8 14 14 0 00-11-1c-7 3-11 11-9 18a12 12 0 008 9 45 45 0 00-14 19l-1-1c-6-4-13-9-20-9a13 13 0 002-12 16 16 0 00-7-10 12 12 0 00-10 0c-8 2-12 10-10 17a12 12 0 0010 9c-2 2-4 6-4 10l3 21v3a1 1 0 002 1h0l25-5a1 1 0 001-1 1 1 0 000 0 1 1 0 001-1l-6-18 1 1h2l3 2 3 1a1 1 0 000 1 5 5 0 006-2c5 3 10-2 14-7a103 103 0 003 17 1 1 0 000 1 1 1 0 001 0 1 1 0 000 0 45 45 0 009-1l2-1 4-1a96 96 0 009-2 1 1 0 001-1 1 1 0 000 0 1 1 0 000 0 2 2 0 000-1zm-88-27c-2-5 1-11 6-13 5-3 9-2 11 0 4 2 6 8 6 12s-2 6-4 8h-1 0a1 1 0 000 0 9 9 0 01-3 0 1 1 0 000 0c-8 1-13-1-15-7zm44 22l-4 1h0c-3-3-8-5-12-5a1 1 0 00-1 0 1 1 0 000 1 1 1 0 000 0l6 15v3l-15 4h-2a18 18 0 01-5 1c-2 0-2-2-3-4v-1-3c-2-8-4-18 3-24a18 18 0 003-1 1 1 0 000 1 10 10 0 007-2c7-1 14 5 20 9l2 1a1 1 0 000 0 3 3 0 011 2 2 2 0 010 2zm8-33a13 13 0 017-16 12 12 0 019 0 11 11 0 016 6c3 7-2 13-7 16a1 1 0 00-1 0c-6 1-11 0-14-6zm25 40l-3 1h-2a50 50 0 00-8 2l-2-12-1-7h0a1 1 0 000-1 1 1 0 00-2 0c-5 7-9 10-13 10a5 5 0 000-4 53 53 0 0115-20 22 22 0 006-1 1 1 0 001 0h0a1 1 0 001 0l1-1c7 1 9 8 11 14a150 150 0 015 17h0a1 1 0 000 0l-9 2zM-180 561a1 1 0 00-1-1 76 76 0 01-7-28h0a1 1 0 000-2l-15 1a10 10 0 00-10-5 10 10 0 00-7 5 107 107 0 00-15 0 1 1 0 00-1 1 1 1 0 00-1 1l-10 32a1 1 0 001 1c0 4 4 7 8 7a11 11 0 0011-7 1 1 0 000-1 1 1 0 000 0l1-1a178 178 0 01-9-31 1 1 0 000 0 109 109 0 0014 0 9 9 0 000 4h6a321 321 0 011 42c-6-1-12 2-17 6a1 1 0 001 2 1 1 0 000 0h36a1 1 0 001-1 1 1 0 000-1c-2-5-10-6-15-7l-1-42h6a1 1 0 000-1h1a11 11 0 000-3h12a180 180 0 00-9 28h0v1c3 9 16 10 20 1a1 1 0 00-1-1zm-58 10c-4 0-6-3-7-6a1 1 0 000 0l17 1c-2 4-6 6-10 5zm11-7h-18a1 1 0 000 0 259 259 0 009-27 136 136 0 009 27zm19 17a1 1 0 000-1h0c4 0 11 1 13 5l-33 1c4-4 8-6 14-6h0a1 1 0 000 1h-1a5 5 0 007 0zm-6-44l4-1 1 45h0a4 4 0 01-5 0 1 1 0 001-1c1-14 1-29-1-43zm11-2h-17c1-3 4-7 8-8a8 8 0 017 4 1 1 0 000 1h1a9 9 0 011 3zm5 25l8-25a78 78 0 007 25 103 103 0 00-15 0zm0 1l16 1a1 1 0 001 0c-5 6-12 5-17-1z" data-groupcolor="0" data-name="CUSTOM" data-setup="true" data-type="custom" vector-effect="non-scaling-stroke"/><g fill="#6e7ded" stroke="transparent" stroke-width="1" data-name="CUSTOM-group" data-setup="true" data-type="custom"><path d="M758 602a1 1 0 000-1 57 57 0 00-7-1h0l-1 1a193 193 0 008 21 1 1 0 001 0 32 32 0 019 0 1 1 0 001-1h1l11-38a1 1 0 00-1-1 1 1 0 000 0 51 51 0 01-9 0 1 1 0 000 0 1 1 0 00-1 1l-7 27a67 67 0 00-5-8zm6 11l8-30a24 24 0 007 1 354 354 0 00-10 37 1 1 0 000 0 31 31 0 00-7-1c-3 0-3 0-4-3l-7-16a61 61 0 007 1l4 11a1 1 0 002 0z" data-groupcolor="0" vector-effect="non-scaling-stroke"/><path d="M778 604c1 8 2 17-6 23-7 4-16 2-22-2-7-6-10-15-5-23 4-6 11-8 18-8a1 1 0 000-2c-8-1-17 3-21 10-5 9-1 19 6 24 7 6 18 8 26 2s8-16 6-25c0-1-2-1-2 1z" data-groupcolor="0" vector-effect="non-scaling-stroke"/></g><path fill="#6e7ded" stroke="transparent" stroke-width="1" d="M-66 399a147 147 0 01-28 19v2a43 43 0 007 1c-11 12-22 30-16 47 0 0 0 0 0 0a1 1 0 000 1h1a1 1 0 000 0 91 91 0 007-11c4 5 8 10 15 11l1-1a1 1 0 000-1c-5-5-3-16-2-22a63 63 0 016-19l9 6a1 1 0 002-1l-1-31-1-1zm0 30l-9-5a1 1 0 00-1 0 65 65 0 00-8 25c0 5-1 13 2 18-5-2-9-7-12-12a1 1 0 00-2 1l-7 11c-3-18 6-33 19-46a1 1 0 00-1-1 37 37 0 01-6-2 145 145 0 0024-16l1 27z" data-groupcolor="0" data-name="CUSTOM" data-setup="true" data-type="custom" vector-effect="non-scaling-stroke"/><g fill="#6e7ded" stroke-width="12"><path d="M-218 189c-6 0-12 4-14 9-2 8 1 17 8 20a1 1 0 001 0c16 7 27-19 11-27l-6-2zm0 2h4c7 3 10 12 7 19-3 6-9 9-16 7a15 15 0 01-8-15c1-6 7-11 13-11z"/><path d="M-218 185c-18-1-27 28-11 36a17 17 0 00-3 6 14 14 0 00-2 0 1 1 0 00-1 1 141 141 0 00-9 22c-1 3 0 5 2 7 8 9 17-23 17-26a1 1 0 000-1l-1-1a11 11 0 000-1l2-4v-1c9 3 19-1 23-10 4-10 0-23-11-27l-6-1zm0 1l5 1c11 4 15 17 9 27-4 8-12 9-20 8a1 1 0 00-1-1c-19-5-11-34 7-35zm-10 36a19 19 0 003 1l-1 3-1 1a12 12 0 010 2 1 1 0 00-1 0l-1-1h-1a31 31 0 012-6zm-6 6l4 2 4 1-4 12c-2 3-6 17-11 12a1 1 0 00-1 0c-3-3 2-10 3-14l5-13z"/></g><path fill="#6e7ded" stroke="transparent" stroke-width="1" d="M827 752a54 54 0 004-8 1 1 0 000-1 1 1 0 00-1-2c-8-1-12-9-7-15 4-6 11-4 16-1a1 1 0 001 0 1 1 0 000 0l5-8 2-4-4-2-7-3c8-5 7-18-1-23-9-6-21 2-17 13l-6-4-5-3c-2 0-2 2-3 3a84 84 0 00-3 8 1 1 0 000 1c6 2 12 8 11 16-1 4-4 8-9 7-4 0-7-2-10-5a1 1 0 00-1 0 1 1 0 00-1 0 71 71 0 00-5 8l-2 5 3 1a37 37 0 018 4c-8 5-7 17 1 21 8 5 19-2 17-12l7 5 5 2a5 5 0 002-3zm-4 0c-2 0-4-2-5-3l-5-3a1 1 0 00-1 1 1 1 0 00-1 1c1 8-7 14-14 10-8-5-6-13 0-18v-2a38 38 0 00-4-3l-5-2c-2-1 0-3 0-5l3-5a1 1 0 000 0c7 5 19 9 22-2 3-8-3-17-11-19l2-4c1-1 2-4 4-4l4 3a51 51 0 005 3 1 1 0 002-1 1 1 0 000-1c-3-10 10-17 17-9 6 6 3 14-3 18v2h1l4 2 5 2c1 1 2 1 1 3a22 22 0 01-2 2l-4 5c-6-5-15-4-19 4-3 7 2 15 10 16-1 2-3 10-6 9z" data-cx="533.7" data-cy="605.3" data-groupcolor="0" data-name="CUSTOM" data-setup="true" data-type="custom" vector-effect="non-scaling-stroke"/><path fill="#6e7ded" stroke="transparent" stroke-width="1" d="M-18 470a3 3 0 11-2-2 3 3 0 012 2zM-44 410a8 8 0 118-8 8 8 0 01-8 8zm0-13a6 6 0 106 5 6 6 0 00-6-5z" data-groupcolor="0" data-name="CUSTOM" data-setup="true" data-type="custom" vector-effect="non-scaling-stroke"/><circle cx="490" cy="643" r="6" fill="#6e7ded" stroke="transparent" stroke-width="1" data-groupcolor="0" data-name="CUSTOM" data-setup="true" data-type="custom" transform="translate(210 -238)" vector-effect="non-scaling-stroke"/><circle cx="496.5" cy="592.5" r="3.5" fill="#6e7ded" stroke="transparent" stroke-width="1" data-cx="496.5" data-cy="592.5" data-groupcolor="0" data-name="CUSTOM" data-setup="true" data-type="custom" transform="translate(156 -148)" vector-effect="non-scaling-stroke"/><g fill="#505bda" stroke="transparent" stroke-width="1" data-name="CUSTOM-group" data-setup="true" data-type="custom"><path d="M-168 456a28 28 0 00-7-17 44 44 0 00-15-11c-6-2-12-4-18-4a20 20 0 00-9 3 16 16 0 00-6 6 12 12 0 00-1 9 11 11 0 005 7 7 7 0 004 1 4 4 0 003-2 9 9 0 002-4 13 13 0 000-5 18 18 0 00-11-13c-6-2-12-2-18 0a34 34 0 00-16 9c-4 4-6 10-5 16a18 18 0 003 7 15 15 0 003 3 12 12 0 004 2 5 5 0 002 0 2 2 0 001-1 4 4 0 001 0v-1-1a7 7 0 001-1 10 10 0 00-5-9 13 13 0 00-4-2 22 22 0 00-9 0 36 36 0 00-16 9 41 41 0 00-10 15 37 37 0 00-3 18h0a1 1 0 01-2 0 38 38 0 012-19 42 42 0 015-9l1-2 2-2a45 45 0 013-4 39 39 0 0117-9 26 26 0 0111-1 17 17 0 015 2 13 13 0 012 2 10 10 0 011 1 11 11 0 011 1 13 13 0 013 10 10 10 0 01-1 2l-1 1a9 9 0 01-2 3 6 6 0 01-3 1 9 9 0 01-3 0 15 15 0 01-5-3 18 18 0 01-4-3 21 21 0 01-4-10 23 23 0 010-2 23 23 0 010-3 20 20 0 011-5 25 25 0 013-5 29 29 0 013-4 37 37 0 0117-9 35 35 0 0110-1 30 30 0 015 0 26 26 0 015 2 21 21 0 018 6 20 20 0 014 9 15 15 0 010 5 11 11 0 01-2 5 7 7 0 01-2 2 6 6 0 01-3 1 9 9 0 01-5-2 13 13 0 01-6-8 14 14 0 010-5 13 13 0 011-5 18 18 0 018-7 22 22 0 019-2 32 32 0 0110 1 50 50 0 019 3 46 46 0 0115 11 34 34 0 016 9 27 27 0 012 9 1 1 0 01-2 0z" data-groupcolor="0" vector-effect="non-scaling-stroke"/><path d="M-171 457a23 23 0 002 1 5 5 0 002 1 8 8 0 003-1h1v-1h1a1 1 0 010 0h1a1 1 0 010 1 1 1 0 010 0 1 1 0 010 0h0-1 1a49 49 0 00-3 6 47 47 0 01-2 6 1 1 0 01-2 0 1 1 0 010 0h0l-3-6a41 41 0 01-1-7 1 1 0 011 0 41 41 0 013 6l2 6h-2a60 60 0 003-6l3-5v-1h0a1 1 0 000 1 1 1 0 000 0 1 1 0 000 0h0a1 1 0 000 0s0 0 0 0h-1 0l-1 1a9 9 0 01-3 1 6 6 0 01-2-1 26 26 0 01-3-1 1 1 0 111-1h0z" data-groupcolor="0" vector-effect="non-scaling-stroke"/></g><g fill="#505bda" fill-rule="evenodd" stroke="transparent" stroke-width="1" data-name="CUSTOM-group" data-setup="true" data-type="custom"><path d="M796 359a36 36 0 0018-18 30 30 0 001-18 31 31 0 00-5-12 26 26 0 00-4-4h0a42 42 0 013 5 37 37 0 014 11 29 29 0 01-1 17 34 34 0 01-16 17c-1-11-6-20-16-24-6-3-12-2-17 1s-7 9-4 16c6 12 18 15 30 12a36 36 0 005-2v4a39 39 0 01-16 29 54 54 0 01-11 6 60 60 0 01-12 4 1 1 0 100 1 55 55 0 0012-3 51 51 0 0012-6 42 42 0 0017-31 36 36 0 001-5m-3-1c-1-10-6-19-15-23a15 15 0 00-14 1c-4 3-6 7-4 13 5 11 16 14 27 11a35 35 0 006-2" data-groupcolor="0" vector-effect="non-scaling-stroke"/><path d="M754 404h7l6 1 11 2v1h0l-11-1h-7l-7-1a3 3 0 01-2-1 2 2 0 010-1 22 22 0 014-3l11-10 5-4v2a2 2 0 010 0 45 45 0 01-4 4l-11 10-2 1" data-groupcolor="0" vector-effect="non-scaling-stroke"/></g><g data-group="true"><path fill="#6e7ded" stroke="transparent" stroke-width="1" d="M-21 822l-1-1c-41-88-90-77-129-68-14 4-28 7-39 4-20-4-31-26-43-49-12-26-25-52-51-59-26-6-49 8-64 21a154 154 0 00-25 31l-1 1-1-1 1-1a157 157 0 0125-31c10-8 19-15 29-18 12-5 24-6 36-3s22 10 32 22c8 11 14 24 21 37 11 23 22 44 41 49 11 2 25-1 39-4 39-9 88-21 131 69h0z" data-groupcolor="0" data-initial-transform="{x:0,y:0}" data-name="CUSTOM" data-setup="true" data-type="custom" vector-effect="non-scaling-stroke"/><path fill="#6e7ded" stroke="transparent" stroke-width="1" d="M-28 827v-1c-40-83-87-72-124-63-12 3-22 5-32 5a43 43 0 01-9-1c-20-4-30-24-42-46-12-24-24-48-49-55-45-13-82 36-89 47h-1l-1-1h1c7-11 45-61 91-48 11 4 21 11 30 22l20 34c11 21 21 42 40 46 12 2 26-1 40-4 19-5 41-10 63-4 24 8 45 30 63 67v1z" data-groupcolor="0" data-initial-transform="{x:0,y:0}" data-name="CUSTOM" data-setup="true" data-type="custom" vector-effect="non-scaling-stroke"/><path fill="#6e7ded" stroke="transparent" stroke-width="1" d="M-28 837h0c-42-79-90-68-128-60-12 3-23 5-33 5a49 49 0 01-10-1c-20-4-31-23-42-44-13-22-26-45-51-52-47-12-85 35-93 44v1l-1-1v-1c8-9 47-56 94-44 12 3 22 10 31 20 8 10 15 21 21 32 11 21 22 40 41 44 13 2 27-1 42-4 20-5 42-10 64-3 26 7 47 27 66 63h0z" data-cx="127.4" data-cy="803.6" data-groupcolor="0" data-initial-transform="{x:-1.2194492885045634,y:0.007630079619730168}" data-name="CUSTOM" data-setup="true" data-type="custom" vector-effect="non-scaling-stroke"/></g><defs id="defs864" fill="#000" opacity="1"><linearGradient id="CUSTOM-GROUP-pffhkhh8purple_black" fill="#000" stroke="transparent" stroke-width="12" data-setup="true" data-type="custom" opacity="1" vector-effect="non-scaling-stroke"/><linearGradient id="CUSTOM-GROUP-pffhkhh8linearGradient880" x1="60.8" x2="196" y1="120.1" y2="0" fill="#000" stroke="transparent" stroke-width="12" data-setup="true" data-type="custom" gradientTransform="scale(-1 1) rotate(60 1 -71)" gradientUnits="userSpaceOnUse" opacity="1" vector-effect="non-scaling-stroke" xlink:href="#purple_black"/><linearGradient id="CUSTOM-GROUP-eik96gf5purple_black" fill="#000" stroke="transparent" stroke-width="12" data-setup="true" data-type="custom" opacity="1" vector-effect="non-scaling-stroke"/><linearGradient id="CUSTOM-GROUP-eik96gf5linearGradient880" x1="60.8" x2="196" y1="120.1" y2="0" fill="#000" stroke="transparent" stroke-width="12" data-setup="true" data-type="custom" gradientTransform="scale(-1 1) rotate(60 1 -71)" gradientUnits="userSpaceOnUse" opacity="1" vector-effect="non-scaling-stroke" xlink:href="#purple_black"/><linearGradient id="CUSTOM-GROUP-6mos99tppurple_black" fill="#000" stroke="transparent" stroke-width="12" data-setup="true" data-type="custom" opacity="1" vector-effect="non-scaling-stroke"/><linearGradient id="CUSTOM-GROUP-6mos99tplinearGradient880" x1="60.8" x2="196" y1="120.1" y2="0" fill="#000" stroke="transparent" stroke-width="12" data-setup="true" data-type="custom" gradientTransform="scale(-1 1) rotate(60 1 -71)" gradientUnits="userSpaceOnUse" opacity="1" vector-effect="non-scaling-stroke" xlink:href="#purple_black"/><linearGradient id="CUSTOM-GROUP-9pdmy9qopurple_black" fill="#000" stroke="transparent" stroke-width="12" data-setup="true" data-type="custom" opacity="1" vector-effect="non-scaling-stroke"/><linearGradient id="CUSTOM-GROUP-9pdmy9qolinearGradient880" x1="60.8" x2="196" y1="120.1" y2="0" fill="#000" stroke="transparent" stroke-width="12" data-setup="true" data-type="custom" gradientTransform="scale(-1 1) rotate(60 1 -71)" gradientUnits="userSpaceOnUse" opacity="1" vector-effect="non-scaling-stroke" xlink:href="#purple_black"/><linearGradient id="CUSTOM-GROUP-mfhix9ywpurple_black" fill="#000" stroke="transparent" stroke-width="12" data-setup="true" data-type="custom" opacity="1" vector-effect="non-scaling-stroke"/><linearGradient id="CUSTOM-GROUP-mfhix9ywlinearGradient880" x1="60.8" x2="196" y1="120.1" y2="0" fill="#000" stroke="transparent" stroke-width="12" data-setup="true" data-type="custom" gradientTransform="scale(-1 1) rotate(60 1 -71)" gradientUnits="userSpaceOnUse" opacity="1" vector-effect="non-scaling-stroke" xlink:href="#purple_black"/><linearGradient id="CUSTOM-GROUP-fyze4tv9purple_black" fill="#000" stroke="transparent" stroke-width="12" data-setup="true" data-type="custom" opacity="1" vector-effect="non-scaling-stroke"/><linearGradient id="CUSTOM-GROUP-fyze4tv9linearGradient880" x1="60.8" x2="196" y1="120.1" y2="0" fill="#000" stroke="transparent" stroke-width="12" data-setup="true" data-type="custom" gradientTransform="scale(-1 1) rotate(60 1 -71)" gradientUnits="userSpaceOnUse" opacity="1" vector-effect="non-scaling-stroke" xlink:href="#purple_black"/><linearGradient id="CUSTOM-GROUP-nie0n1e5purple_black" fill="#000" stroke="transparent" stroke-width="12" data-setup="true" data-type="custom" opacity="1" vector-effect="non-scaling-stroke"/><linearGradient id="CUSTOM-GROUP-nie0n1e5linearGradient880" x1="60.8" x2="196" y1="120.1" y2="0" fill="#000" stroke="transparent" stroke-width="12" data-setup="true" data-type="custom" gradientTransform="scale(-1 1) rotate(60 1 -71)" gradientUnits="userSpaceOnUse" opacity="1" vector-effect="non-scaling-stroke" xlink:href="#purple_black"/><linearGradient id="CUSTOM-GROUP-9j7b779ipurple_black" fill="#000" stroke="transparent" stroke-width="12" data-setup="true" data-type="custom" opacity="1" vector-effect="non-scaling-stroke"/><linearGradient id="CUSTOM-GROUP-9j7b779ilinearGradient880" x1="60.8" x2="196" y1="120.1" y2="0" fill="#000" stroke="transparent" stroke-width="12" data-setup="true" data-type="custom" gradientTransform="scale(-1 1) rotate(60 1 -71)" gradientUnits="userSpaceOnUse" opacity="1" vector-effect="non-scaling-stroke" xlink:href="#purple_black"/></defs></svg>