<svg version="1.1" xmlns="http://www.w3.org/2000/svg"
   width="512" height="512" viewBox="0 0 512 512" >
<path d="m 0,315.90814 c 0,25.69221 5.0607,51.13206 14.89443,74.86788 9.83373,23.73696 24.24722,45.30382 42.41729,63.4706 18.17007,18.16677 39.74084,32.57764 63.48097,42.40846 23.74013,9.83309 49.18572,14.89286 74.88146,14.89286 v -195.6398 z m 0,0 c 0,-25.69221 5.0607,-51.13206 14.89443,-74.86788 9.83373,-23.73583 24.24722,-45.30269 42.41729,-63.46946 18.17007,-18.16791 39.74084,-32.57765 63.48097,-42.4096 23.74013,-9.83195 49.18572,-14.89287 74.88146,-14.89287 v 195.63981 z"
     style="fill:#4b0c53"/>
<path d="m 414.44741,316.3602 c 0,25.69221 -5.05501,51.13206 -14.88761,74.86788 -9.83373,23.73696 -24.24722,45.30382 -42.41956,63.4706 -18.17007,18.16677 -39.74198,32.57764 -63.48211,42.40846 C 269.918,506.94023 244.47354,512 218.77667,512 V 316.3602 Z"
     style="fill:#4b0c53"/>
<path d="m 512,146.89384 c 0,81.12695 -65.78563,146.89383 -146.92502,146.89383 H 218.1545 V 146.89384 C 218.1545,65.76688 283.93331,0 365.07498,0 446.21437,0 512,65.76688 512,146.89384 Z"
     style="fill:#3fd0b2"/>
</svg>
